SplineFontDB: 3.2
FontName: NotoSerifHebrew-Regular
FullName: Noto Serif Hebrew Regular
FamilyName: Noto Serif Hebrew
Weight: Book
Copyright: Copyright 2016 Google LLC. All Rights Reserved.
Version: 2.000; ttfautohint (v1.8.3) -l 8 -r 50 -G 200 -x 14 -D hebr -f none -a qsq -X ""
ItalicAngle: 0
UnderlinePosition: -125
UnderlineWidth: 50
Ascent: 800
Descent: 200
InvalidEm: 0
sfntRevision: 0x00020000
LayerCount: 2
Layer: 0 1 "+BBcEMAQ0BD0EOAQ5 +BD8EOwQwBD0A" 1
Layer: 1 1 "+BB8ENQRABDUENAQ9BDgEOQAA +BD8EOwQwBD0A" 0
XUID: [1021 59 1751208496 1882]
StyleMap: 0x0040
FSType: 0
OS2Version: 4
OS2_WeightWidthSlopeOnly: 1
OS2_UseTypoMetrics: 0
CreationTime: 1466678972
ModificationTime: 1631607936
PfmFamily: 17
TTFWeight: 400
TTFWidth: 5
LineGap: 0
VLineGap: 0
Panose: 2 2 5 2 6 5 5 2 2 4
OS2TypoAscent: 896
OS2TypoAOffset: 0
OS2TypoDescent: -290
OS2TypoDOffset: 0
OS2TypoLinegap: 0
OS2WinAscent: 896
OS2WinAOffset: 0
OS2WinDescent: 290
OS2WinDOffset: 0
HheadAscent: 896
HheadAOffset: 0
HheadDescent: -290
HheadDOffset: 0
OS2SubXSize: 650
OS2SubYSize: 600
OS2SubXOff: 0
OS2SubYOff: 75
OS2SupXSize: 650
OS2SupYSize: 600
OS2SupXOff: 0
OS2SupYOff: 350
OS2StrikeYSize: 50
OS2StrikeYPos: 322
OS2CapHeight: 714
OS2XHeight: 536
OS2Vendor: 'GOOG'
OS2CodePages: 00000020.00000000
OS2UnicodeRanges: 80000803.40002002.00000000.00000000
Lookup: 4 0 0 "'ccmp' +BBoEPgQ8BD8EPgQ3BDgERgQ4BE8A-/+BDQENQQ6BD4EPAQ/BD4ENwQ4BEYEOARP +BDMEOwQ4BEQEMAAA in +BBgEMgRABDgEQgAA lookup 0" { "'ccmp' +BBoEPgQ8BD8EPgQ3BDgERgQ4BE8A-/+BDQENQQ6BD4EPAQ/BD4ENwQ4BEYEOARP +BDMEOwQ4BEQEMAAA in +BBgEMgRABDgEQgAA lookup 0 subtable"  } ['ccmp' ('hebr' <'dflt' > ) ]
Lookup: 4 1 0 "'ccmp' +BBoEPgQ8BD8EPgQ3BDgERgQ4BE8A-/+BDQENQQ6BD4EPAQ/BD4ENwQ4BEYEOARP +BDMEOwQ4BEQEMAAA in +BBgEMgRABDgEQgAA lookup 1" { "'ccmp' +BBoEPgQ8BD8EPgQ3BDgERgQ4BE8A-/+BDQENQQ6BD4EPAQ/BD4ENwQ4BEYEOARP +BDMEOwQ4BEQEMAAA in +BBgEMgRABDgEQgAA lookup 1 subtable"  } ['ccmp' ('hebr' <'dflt' > ) ]

StartChar: .notdef
Encoding: 65536 -1 0
Width: 600
Flags: W
LayerCount: 2
Fore
SplineSet
94 0 m 1,0,-1
 94 714 l 1,1,-1
 505 714 l 1,2,-1
 505 0 l 1,3,-1
 94 0 l 1,0,-1
145 51 m 1,4,-1
 454 51 l 1,5,-1
 454 663 l 1,6,-1
 145 663 l 1,7,-1
 145 51 l 1,4,-1
EndSplineSet
EndChar

StartChar: uni20AA
Encoding: 8362 8362 4
Width: 790
Flags: W
LayerCount: 2
Fore
SplineSet
313 0 m 1,0,1
 300 79 300 79 292 127 c 128,-1,2
 284 175 284 175 280.5 207 c 128,-1,3
 277 239 277 239 277 269 c 0,4,5
 277 306 277 306 282 346 c 128,-1,6
 287 386 287 386 297 417 c 1,7,-1
 339 417 l 1,8,9
 330 335 330 335 338.5 259.5 c 128,-1,10
 347 184 347 184 369 109 c 1,11,-1
 534 109 l 2,12,13
 576 109 576 109 602 136 c 128,-1,14
 628 163 628 163 642.5 205.5 c 128,-1,15
 657 248 657 248 664 297 c 128,-1,16
 671 346 671 346 673.5 392 c 128,-1,17
 676 438 676 438 678 469 c 2,18,-1
 679 483 l 1,19,-1
 640 487 l 2,20,21
 613 490 613 490 601.5 502.5 c 128,-1,22
 590 515 590 515 590 549 c 0,23,24
 590 567 590 567 594.5 585.5 c 128,-1,25
 599 604 599 604 614 647 c 1,26,-1
 644 647 l 1,27,-1
 644 643 l 2,28,29
 644 623 644 623 651.5 611 c 128,-1,30
 659 599 659 599 678 596 c 2,31,-1
 696 593 l 2,32,33
 722 589 722 589 727.5 573 c 128,-1,34
 733 557 733 557 732 540 c 2,35,-1
 718 315 l 2,36,37
 716 287 716 287 711 246.5 c 128,-1,38
 706 206 706 206 695 163 c 128,-1,39
 684 120 684 120 662.5 83 c 128,-1,40
 641 46 641 46 607 23 c 128,-1,41
 573 0 573 0 522 0 c 2,42,-1
 313 0 l 1,0,1
110 -7 m 1,43,-1
 110 299 l 2,44,45
 110 366 110 366 117 410.5 c 128,-1,46
 124 455 124 455 129 480 c 1,47,-1
 129 483 l 1,48,-1
 112 483 l 2,49,50
 88 483 88 483 75.5 499.5 c 128,-1,51
 63 516 63 516 63 555 c 0,52,53
 63 572 63 572 66 588.5 c 128,-1,54
 69 605 69 605 77 647 c 1,55,-1
 104 647 l 1,56,-1
 104 644 l 2,57,58
 104 618 104 618 118 605 c 128,-1,59
 132 592 132 592 157 592 c 2,60,-1
 503 592 l 2,61,62
 520 592 520 592 526.5 585 c 128,-1,63
 533 578 533 578 533 559 c 2,64,-1
 533 492 l 1,65,-1
 507 483 l 1,66,-1
 520 220 l 1,67,68
 498 198 498 198 466 184 c 1,69,-1
 451 184 l 1,70,-1
 451 299 l 2,71,72
 451 366 451 366 458 410.5 c 128,-1,73
 465 455 465 455 470 480 c 1,74,-1
 470 483 l 1,75,-1
 169 483 l 1,76,-1
 179 29 l 1,77,78
 157 7 157 7 125 -7 c 1,79,-1
 110 -7 l 1,43,-1
EndSplineSet
EndChar

StartChar: uni25CC
Encoding: 9676 9676 5
Width: 594
Flags: W
LayerCount: 2
Fore
SplineSet
323 514 m 0,0,1
 323 487 323 487 297 487 c 256,2,3
 271 487 271 487 271 514 c 0,4,5
 271 540 271 540 297 540 c 256,6,7
 323 540 323 540 323 514 c 0,0,1
408 496 m 0,8,9
 408 470 408 470 383 470 c 0,10,11
 355 470 355 470 355 496 c 0,12,13
 355 523 355 523 383 523 c 0,14,15
 408 523 408 523 408 496 c 0,8,9
239 496 m 0,16,17
 239 470 239 470 212 470 c 0,18,19
 186 470 186 470 186 496 c 0,20,21
 186 523 186 523 212 523 c 0,22,23
 239 523 239 523 239 496 c 0,16,17
480 448 m 0,24,25
 480 422 480 422 455 422 c 0,26,27
 428 422 428 422 428 448 c 0,28,29
 428 475 428 475 455 475 c 0,30,31
 480 475 480 475 480 448 c 0,24,25
167 448 m 0,32,33
 167 422 167 422 140 422 c 0,34,35
 114 422 114 422 114 447 c 0,36,37
 114 475 114 475 140 475 c 0,38,39
 167 475 167 475 167 448 c 0,32,33
529 376 m 0,40,41
 529 349 529 349 502 349 c 0,42,43
 476 349 476 349 476 376 c 0,44,45
 476 402 476 402 503 402 c 0,46,47
 529 402 529 402 529 376 c 0,40,41
118 376 m 0,48,49
 118 349 118 349 93 349 c 0,50,51
 65 349 65 349 65 376 c 0,52,53
 65 402 65 402 92 402 c 0,54,55
 118 402 118 402 118 376 c 0,48,49
546 291 m 256,56,57
 546 265 546 265 521 265 c 0,58,59
 494 265 494 265 494 291 c 256,60,61
 494 317 494 317 521 317 c 0,62,63
 546 317 546 317 546 291 c 256,56,57
101 291 m 256,64,65
 101 265 101 265 75 265 c 0,66,67
 48 265 48 265 48 291 c 256,68,69
 48 317 48 317 75 317 c 0,70,71
 101 317 101 317 101 291 c 256,64,65
529 206 m 0,72,73
 529 180 529 180 502 180 c 0,74,75
 476 180 476 180 476 206 c 0,76,77
 476 233 476 233 502 233 c 0,78,79
 529 233 529 233 529 206 c 0,72,73
118 206 m 0,80,81
 118 180 118 180 92 180 c 0,82,83
 65 180 65 180 65 206 c 0,84,85
 65 233 65 233 92 233 c 0,86,87
 118 233 118 233 118 206 c 0,80,81
480 133 m 0,88,89
 480 107 480 107 455 107 c 0,90,91
 428 107 428 107 428 133 c 0,92,93
 428 160 428 160 455 160 c 0,94,95
 480 160 480 160 480 133 c 0,88,89
167 133 m 0,96,97
 167 107 167 107 140 107 c 0,98,99
 114 107 114 107 114 133 c 0,100,101
 114 160 114 160 140 160 c 0,102,103
 167 160 167 160 167 133 c 0,96,97
408 85 m 0,104,105
 408 60 408 60 383 60 c 0,106,107
 355 60 355 60 355 85 c 0,108,109
 355 112 355 112 383 112 c 0,110,111
 408 112 408 112 408 85 c 0,104,105
239 87 m 0,112,113
 239 60 239 60 212 60 c 0,114,115
 186 60 186 60 186 85 c 0,116,117
 186 112 186 112 212 112 c 0,118,119
 239 112 239 112 239 87 c 0,112,113
323 69 m 0,120,121
 323 42 323 42 297 42 c 256,122,123
 271 42 271 42 271 69 c 0,124,125
 271 95 271 95 297 95 c 256,126,127
 323 95 323 95 323 69 c 0,120,121
EndSplineSet
EndChar

StartChar: uni200C
Encoding: 8204 8204 6
Width: 0
Flags: W
LayerCount: 2
Fore
SplineSet
18 679 m 1,0,-1
 18 -45 l 1,1,-1
 -18 -45 l 1,2,-1
 -18 679 l 1,3,-1
 18 679 l 1,0,-1
EndSplineSet
EndChar

StartChar: uni200D
Encoding: 8205 8205 7
Width: 0
Flags: W
LayerCount: 2
Fore
SplineSet
18 -45 m 1,0,-1
 -18 -45 l 1,1,-1
 -18 533 l 1,2,-1
 -83 467 l 1,3,-1
 -107 491 l 1,4,-1
 -23 573 l 1,5,-1
 -107 655 l 1,6,-1
 -83 679 l 1,7,-1
 0 596 l 1,8,-1
 83 679 l 1,9,-1
 107 655 l 1,10,-1
 23 573 l 1,11,-1
 107 491 l 1,12,-1
 83 467 l 1,13,-1
 18 533 l 1,14,-1
 18 -45 l 1,0,-1
EndSplineSet
EndChar

StartChar: uni200E
Encoding: 8206 8206 8
Width: 0
Flags: W
LayerCount: 2
Fore
SplineSet
210 574 m 1,0,-1
 104 470 l 1,1,-1
 80 494 l 1,2,-1
 147 557 l 1,3,-1
 17 557 l 1,4,-1
 17 -45 l 1,5,-1
 -18 -45 l 1,6,-1
 -18 592 l 1,7,-1
 147 592 l 1,8,-1
 80 655 l 1,9,-1
 104 679 l 1,10,-1
 210 574 l 1,0,-1
EndSplineSet
EndChar

StartChar: uni200F
Encoding: 8207 8207 9
Width: 0
Flags: W
LayerCount: 2
Fore
SplineSet
17 -45 m 1,0,-1
 -18 -45 l 1,1,-1
 -18 557 l 1,2,-1
 -147 557 l 1,3,-1
 -81 494 l 1,4,-1
 -104 470 l 1,5,-1
 -210 574 l 1,6,-1
 -104 679 l 1,7,-1
 -81 655 l 1,8,-1
 -147 592 l 1,9,-1
 17 592 l 1,10,-1
 17 -45 l 1,0,-1
EndSplineSet
EndChar

StartChar: uni05D0
Encoding: 1488 1488 10
Width: 589
GlyphClass: 2
Flags: W
AnchorPoint: "+BBEENQQ3BEsEPARPBD0EPQQ+BDUA--4" 328 0 basechar 0
AnchorPoint: "+BBEENQQ3BEsEPARPBD0EPQQ+BDUA--3" 276 536 basechar 0
AnchorPoint: "+BBEENQQ3BEsEPARPBD0EPQQ+BDUA--2" 19 536 basechar 0
AnchorPoint: "+BBEENQQ3BEsEPARPBD0EPQQ+BDUA--1" 269 136 basechar 0
AnchorPoint: "+BBEENQQ3BEsEPARPBD0EPQQ+BDUA--0" 83 0 basechar 0
LayerCount: 2
Fore
SplineSet
52 0 m 1,0,-1
 52 46 l 1,1,-1
 61 46 l 2,2,3
 84 46 84 46 91.5 54.5 c 128,-1,4
 99 63 99 63 94 82 c 2,5,-1
 77 155 l 2,6,7
 66 204 66 204 68 243.5 c 128,-1,8
 70 283 70 283 95 323 c 2,9,-1
 143 402 l 1,10,-1
 86 467 l 2,11,12
 61 495 61 495 56.5 521.5 c 128,-1,13
 52 548 52 548 52 558 c 0,14,15
 52 587 52 587 60 606 c 128,-1,16
 68 625 68 625 77 647 c 1,17,-1
 101 647 l 1,18,-1
 101 643 l 2,19,20
 101 628 101 628 109 607 c 128,-1,21
 117 586 117 586 145 554 c 2,22,-1
 356 314 l 1,23,24
 358 330 358 330 366.5 352 c 128,-1,25
 375 374 375 374 384 391 c 2,26,-1
 435 485 l 1,27,-1
 412 489 l 2,28,29
 387 493 387 493 374.5 504.5 c 128,-1,30
 362 516 362 516 362 553 c 0,31,32
 362 570 362 570 367.5 594 c 128,-1,33
 373 618 373 618 386 647 c 1,34,-1
 413 647 l 1,35,-1
 413 641 l 2,36,37
 413 618 413 618 424 607.5 c 128,-1,38
 435 597 435 597 455 593 c 2,39,-1
 510 584 l 2,40,41
 549 578 549 578 549 530 c 0,42,43
 549 520 549 520 547.5 507.5 c 128,-1,44
 546 495 546 495 541 468 c 1,45,-1
 478 478 l 1,46,-1
 428 385 l 2,47,48
 411 352 411 352 404.5 322 c 128,-1,49
 398 292 398 292 398 266 c 1,50,-1
 502 147 l 2,51,52
 522 124 522 124 529 104 c 128,-1,53
 536 84 536 84 536 64 c 0,54,55
 536 32 536 32 524.5 16.5 c 128,-1,56
 513 1 513 1 501 -10 c 1,57,-1
 487 -10 l 1,58,59
 486 3 486 3 478 16.5 c 128,-1,60
 470 30 470 30 450 52 c 2,61,-1
 171 370 l 1,62,-1
 149 329 l 2,63,64
 131 295 131 295 129 266 c 128,-1,65
 127 237 127 237 144 199 c 2,66,-1
 182 115 l 2,67,68
 208 56 208 56 182 0 c 1,69,-1
 52 0 l 1,0,-1
EndSplineSet
PairPos2: "'kern' Horizontal Kerning in +BBgEMgRABDgEQgAA lookup 0 subtable" uni05E1 dx=-10 dy=0 dh=-10 dv=0 dx=0 dy=0 dh=0 dv=0
PairPos2: "'kern' Horizontal Kerning in +BBgEMgRABDgEQgAA lookup 0 subtable" uni05E0 dx=-10 dy=0 dh=-10 dv=0 dx=0 dy=0 dh=0 dv=0
PairPos2: "'kern' Horizontal Kerning in +BBgEMgRABDgEQgAA lookup 0 subtable" uni05DE dx=-20 dy=0 dh=-20 dv=0 dx=0 dy=0 dh=0 dv=0
PairPos2: "'kern' Horizontal Kerning in +BBgEMgRABDgEQgAA lookup 0 subtable" uni05DC dx=-35 dy=0 dh=-35 dv=0 dx=0 dy=0 dh=0 dv=0
PairPos2: "'kern' Horizontal Kerning in +BBgEMgRABDgEQgAA lookup 0 subtable" uni05E5 dx=-20 dy=0 dh=-20 dv=0 dx=0 dy=0 dh=0 dv=0
PairPos2: "'kern' Horizontal Kerning in +BBgEMgRABDgEQgAA lookup 0 subtable" uni05E2 dx=-30 dy=0 dh=-30 dv=0 dx=0 dy=0 dh=0 dv=0
EndChar

StartChar: uniFB4F
Encoding: 64335 64335 12
Width: 572
GlyphClass: 3
LigCaretCntFixed: 1
Flags: W
LayerCount: 2
Fore
SplineSet
470 -10 m 1,0,1
 469 3 469 3 461 16.5 c 128,-1,2
 453 30 453 30 433 52 c 2,3,-1
 69 467 l 2,4,5
 44 496 44 496 39.5 517 c 128,-1,6
 35 538 35 538 35 548 c 0,7,8
 35 565 35 565 40.5 591.5 c 128,-1,9
 46 618 46 618 54 648 c 128,-1,10
 62 678 62 678 70 703.5 c 128,-1,11
 78 729 78 729 82 743 c 0,12,13
 87 762 87 762 70 765 c 2,14,-1
 40 769 l 2,15,16
 21 771 21 771 16.5 783 c 128,-1,17
 12 795 12 795 12 810 c 0,18,19
 12 824 12 824 18.5 844.5 c 128,-1,20
 25 865 25 865 28 873 c 1,21,-1
 48 873 l 1,22,-1
 48 869 l 2,23,24
 48 854 48 854 54 847.5 c 128,-1,25
 60 841 60 841 70 839 c 2,26,-1
 105 834 l 2,27,28
 125 831 125 831 131 814 c 128,-1,29
 137 797 137 797 126 758 c 2,30,-1
 96 643 l 2,31,32
 92 627 92 627 94.5 608 c 128,-1,33
 97 589 97 589 128 554 c 2,34,-1
 339 314 l 1,35,36
 341 330 341 330 349.5 352 c 128,-1,37
 358 374 358 374 367 391 c 2,38,-1
 418 485 l 1,39,-1
 395 489 l 2,40,41
 370 493 370 493 357.5 504.5 c 128,-1,42
 345 516 345 516 345 553 c 0,43,44
 345 570 345 570 350.5 594 c 128,-1,45
 356 618 356 618 369 647 c 1,46,-1
 396 647 l 1,47,-1
 396 641 l 2,48,49
 396 618 396 618 407 607 c 128,-1,50
 418 596 418 596 438 593 c 2,51,-1
 493 584 l 2,52,53
 532 578 532 578 532 530 c 0,54,55
 532 520 532 520 530.5 507.5 c 128,-1,56
 529 495 529 495 524 468 c 1,57,-1
 461 478 l 1,58,-1
 411 385 l 2,59,60
 394 352 394 352 387.5 322 c 128,-1,61
 381 292 381 292 381 266 c 1,62,-1
 485 147 l 2,63,64
 505 124 505 124 512 104 c 128,-1,65
 519 84 519 84 519 64 c 0,66,67
 519 32 519 32 507.5 16.5 c 128,-1,68
 496 1 496 1 484 -10 c 1,69,-1
 470 -10 l 1,0,1
EndSplineSet
Ligature2: "'dlig' Discretionary Ligatures in +BBgEMgRABDgEQgAA lookup 2 subtable" uni05D0 uni05DC
LCarets2: 1 274
EndChar

StartChar: uniFB29
Encoding: 64297 64297 15
Width: 559
Flags: W
LayerCount: 2
Fore
SplineSet
65 328 m 1,0,-1
 65 387 l 1,1,-1
 249 387 l 1,2,-1
 249 572 l 1,3,-1
 309 572 l 1,4,-1
 309 387 l 1,5,-1
 494 387 l 1,6,-1
 494 328 l 1,7,-1
 65 328 l 1,0,-1
EndSplineSet
EndChar

StartChar: uni05A2
Encoding: 1442 1442 16
Width: 0
GlyphClass: 4
Flags: W
AnchorPoint: "+BBEENQQ3BEsEPARPBD0EPQQ+BDUA--6" 138 0 mark 0
AnchorPoint: "+BBEENQQ3BEsEPARPBD0EPQQ+BDUA--0" 138 0 mark 0
LayerCount: 2
Fore
SplineSet
161 -286 m 1,0,-1
 113 -289 l 1,1,-1
 113 -239 l 1,2,3
 91 -234 91 -234 75.5 -223 c 128,-1,4
 60 -212 60 -212 52 -196 c 0,5,6
 44 -179 44 -179 41.5 -165.5 c 128,-1,7
 39 -152 39 -152 39 -134 c 0,8,9
 39 -122 39 -122 39.5 -110.5 c 128,-1,10
 40 -99 40 -99 41 -88 c 1,11,-1
 88 -85 l 1,12,13
 87 -98 87 -98 86 -107 c 128,-1,14
 85 -116 85 -116 85 -127 c 0,15,16
 85 -161 85 -161 99 -178.5 c 128,-1,17
 113 -196 113 -196 138 -196 c 0,18,19
 189 -196 189 -196 189 -129 c 0,20,21
 189 -120 189 -120 189 -110 c 128,-1,22
 189 -100 189 -100 187 -88 c 1,23,-1
 233 -85 l 1,24,25
 236 -106 236 -106 236 -129 c 0,26,27
 236 -166 236 -166 222 -195 c 0,28,29
 205 -230 205 -230 161 -239 c 1,30,-1
 161 -286 l 1,0,-1
EndSplineSet
EndChar

StartChar: uni05E2
Encoding: 1506 1506 17
Width: 534
GlyphClass: 2
Flags: W
AnchorPoint: "+BBEENQQ3BEsEPARPBD0EPQQ+BDUA--4" 266 0 basechar 0
AnchorPoint: "+BBEENQQ3BEsEPARPBD0EPQQ+BDUA--3" 266 536 basechar 0
AnchorPoint: "+BBEENQQ3BEsEPARPBD0EPQQ+BDUA--2" 31 536 basechar 0
AnchorPoint: "+BBEENQQ3BEsEPARPBD0EPQQ+BDUA--1" 289 366 basechar 0
AnchorPoint: "+BBEENQQ3BEsEPARPBD0EPQQ+BDUA--0" -1 0 basechar 0
LayerCount: 2
Fore
SplineSet
34 -86 m 1,0,-1
 34 35 l 1,1,-1
 205 133 l 1,2,-1
 134 292 l 2,3,4
 118 328 118 328 113.5 382 c 128,-1,5
 109 436 109 436 115 485 c 1,6,-1
 80 490 l 2,7,8
 53 494 53 494 41.5 506 c 128,-1,9
 30 518 30 518 30 548 c 0,10,11
 30 570 30 570 35.5 591.5 c 128,-1,12
 41 613 41 613 54 647 c 1,13,-1
 81 647 l 1,14,-1
 81 643 l 2,15,16
 81 599 81 599 123 593 c 2,17,-1
 193 584 l 2,18,19
 232 578 232 578 232 530 c 0,20,21
 232 520 232 520 230.5 508 c 128,-1,22
 229 496 229 496 224 469 c 1,23,-1
 152 479 l 1,24,25
 150 444 150 444 157 406.5 c 128,-1,26
 164 369 164 369 178 342 c 2,27,-1
 263 175 l 1,28,29
 312 217 312 217 348 272 c 128,-1,30
 384 327 384 327 406.5 380 c 128,-1,31
 429 433 429 433 436 468 c 2,32,-1
 438 478 l 1,33,-1
 352 490 l 2,34,35
 327 494 327 494 314.5 505.5 c 128,-1,36
 302 517 302 517 302 551 c 0,37,38
 302 570 302 570 307 589 c 128,-1,39
 312 608 312 608 326 647 c 1,40,-1
 353 647 l 1,41,-1
 353 643 l 2,42,43
 353 619 353 619 364 607.5 c 128,-1,44
 375 596 375 596 395 593 c 2,45,-1
 455 584 l 2,46,47
 476 581 476 581 487.5 568 c 128,-1,48
 499 555 499 555 495 532 c 2,49,-1
 487 483 l 2,50,51
 480 443 480 443 460.5 381.5 c 128,-1,52
 441 320 441 320 407 252.5 c 128,-1,53
 373 185 373 185 324.5 122.5 c 128,-1,54
 276 60 276 60 212 18 c 2,55,-1
 55 -86 l 1,56,-1
 34 -86 l 1,0,-1
EndSplineSet
PairPos2: "'kern' Horizontal Kerning in +BBgEMgRABDgEQgAA lookup 0 subtable" uni05D9 dx=-10 dy=0 dh=-10 dv=0 dx=0 dy=0 dh=0 dv=0
PairPos2: "'kern' Horizontal Kerning in +BBgEMgRABDgEQgAA lookup 0 subtable" uni05DE dx=-10 dy=0 dh=-10 dv=0 dx=0 dy=0 dh=0 dv=0
PairPos2: "'kern' Horizontal Kerning in +BBgEMgRABDgEQgAA lookup 0 subtable" uni05D7 dx=-20 dy=0 dh=-20 dv=0 dx=0 dy=0 dh=0 dv=0
PairPos2: "'kern' Horizontal Kerning in +BBgEMgRABDgEQgAA lookup 0 subtable" uni05E5 dx=-20 dy=0 dh=-20 dv=0 dx=0 dy=0 dh=0 dv=0
EndChar

StartChar: uniFB20
Encoding: 64288 64288 18
Width: 545
GlyphClass: 2
Flags: W
AnchorPoint: "+BBEENQQ3BEsEPARPBD0EPQQ+BDUA--4" 218 0 basechar 0
AnchorPoint: "+BBEENQQ3BEsEPARPBD0EPQQ+BDUA--3" 273 536 basechar 0
AnchorPoint: "+BBEENQQ3BEsEPARPBD0EPQQ+BDUA--2" 2 536 basechar 0
AnchorPoint: "+BBEENQQ3BEsEPARPBD0EPQQ+BDUA--0" 1 0 basechar 0
LayerCount: 2
Fore
SplineSet
25 0 m 1,0,-1
 34 109 l 1,1,-1
 181 109 l 1,2,-1
 135 292 l 2,3,4
 122 343 122 343 116.5 392 c 128,-1,5
 111 441 111 441 117 485 c 1,6,-1
 81 490 l 2,7,8
 56 494 56 494 43.5 505 c 128,-1,9
 31 516 31 516 31 552 c 0,10,11
 31 564 31 564 33 574.5 c 128,-1,12
 35 585 35 585 40 601.5 c 128,-1,13
 45 618 45 618 55 647 c 1,14,-1
 85 647 l 1,15,-1
 85 643 l 2,16,17
 85 599 85 599 124 593 c 2,18,-1
 194 584 l 2,19,20
 233 578 233 578 233 530 c 0,21,22
 233 520 233 520 231.5 507.5 c 128,-1,23
 230 495 230 495 225 469 c 1,24,-1
 154 479 l 1,25,26
 153 448 153 448 161 411 c 128,-1,27
 169 374 169 374 179 342 c 2,28,-1
 253 110 l 1,29,30
 290 113 290 113 317.5 136 c 128,-1,31
 345 159 345 159 365 195.5 c 128,-1,32
 385 232 385 232 399 276 c 128,-1,33
 413 320 413 320 423 364 c 2,34,-1
 448 477 l 1,35,-1
 363 490 l 2,36,37
 338 494 338 494 325.5 505 c 128,-1,38
 313 516 313 516 313 552 c 0,39,40
 313 564 313 564 315 574.5 c 128,-1,41
 317 585 317 585 322 601.5 c 128,-1,42
 327 618 327 618 337 647 c 1,43,-1
 367 647 l 1,44,-1
 367 642 l 2,45,46
 367 599 367 599 406 593 c 2,47,-1
 471 583 l 2,48,49
 493 579 493 579 503 561.5 c 128,-1,50
 513 544 513 544 503 500 c 2,51,-1
 451 256 l 2,52,53
 437 191 437 191 408.5 132.5 c 128,-1,54
 380 74 380 74 338.5 37 c 128,-1,55
 297 0 297 0 243 0 c 2,56,-1
 25 0 l 1,0,-1
EndSplineSet
EndChar

StartChar: uni05D1
Encoding: 1489 1489 19
Width: 539
GlyphClass: 2
Flags: W
AnchorPoint: "+BBEENQQ3BEsEPARPBD0EPQQ+BDUA--4" 264 0 basechar 0
AnchorPoint: "+BBEENQQ3BEsEPARPBD0EPQQ+BDUA--3" 235 536 basechar 0
AnchorPoint: "+BBEENQQ3BEsEPARPBD0EPQQ+BDUA--2" 15 536 basechar 0
AnchorPoint: "+BBEENQQ3BEsEPARPBD0EPQQ+BDUA--1" 237 300 basechar 0
AnchorPoint: "+BBEENQQ3BEsEPARPBD0EPQQ+BDUA--0" 24 0 basechar 0
LayerCount: 2
Fore
SplineSet
34 0 m 1,0,-1
 62 109 l 1,1,-1
 378 109 l 1,2,3
 384 125 384 125 387 137.5 c 128,-1,4
 390 150 390 150 391 166 c 128,-1,5
 392 182 392 182 392 209 c 2,6,-1
 392 391 l 2,7,8
 392 442 392 442 370.5 462.5 c 128,-1,9
 349 483 349 483 305 483 c 2,10,-1
 99 483 l 2,11,12
 75 483 75 483 62.5 499.5 c 128,-1,13
 50 516 50 516 50 555 c 0,14,15
 50 572 50 572 53 591 c 128,-1,16
 56 610 56 610 64 647 c 1,17,-1
 91 647 l 1,18,-1
 91 644 l 2,19,20
 91 620 91 620 104.5 606 c 128,-1,21
 118 592 118 592 144 592 c 2,22,-1
 325 592 l 2,23,24
 383 592 383 592 412.5 562 c 128,-1,25
 442 532 442 532 442 476 c 2,26,-1
 442 242 l 2,27,28
 442 192 442 192 438.5 162.5 c 128,-1,29
 435 133 435 133 427 109 c 1,30,-1
 494 109 l 1,31,-1
 494 0 l 1,32,-1
 34 0 l 1,0,-1
EndSplineSet
PairPos2: "'kern' Horizontal Kerning in +BBgEMgRABDgEQgAA lookup 0 subtable" uni05E9 dx=-10 dy=0 dh=-10 dv=0 dx=0 dy=0 dh=0 dv=0
PairPos2: "'kern' Horizontal Kerning in +BBgEMgRABDgEQgAA lookup 0 subtable" uni05E1 dx=-30 dy=0 dh=-30 dv=0 dx=0 dy=0 dh=0 dv=0
PairPos2: "'kern' Horizontal Kerning in +BBgEMgRABDgEQgAA lookup 0 subtable" uni05DE dx=-10 dy=0 dh=-10 dv=0 dx=0 dy=0 dh=0 dv=0
PairPos2: "'kern' Horizontal Kerning in +BBgEMgRABDgEQgAA lookup 0 subtable" uni05E2 dx=-10 dy=0 dh=-10 dv=0 dx=0 dy=0 dh=0 dv=0
EndChar

StartChar: uni05BC
Encoding: 1468 1468 22
Width: 0
GlyphClass: 4
Flags: W
AnchorPoint: "+BBEENQQ3BEsEPARPBD0EPQQ+BDUA--7" 84 300 mark 0
AnchorPoint: "+BBEENQQ3BEsEPARPBD0EPQQ+BDUA--1" 84 300 mark 0
LayerCount: 2
Fore
SplineSet
46 300 m 0,0,1
 46 342 46 342 83 342 c 0,2,3
 100 342 100 342 110.5 331.5 c 128,-1,4
 121 321 121 321 121 300 c 0,5,6
 121 278 121 278 110.5 267.5 c 128,-1,7
 100 257 100 257 83 257 c 0,8,9
 46 257 46 257 46 300 c 0,0,1
EndSplineSet
EndChar

StartChar: uni05D3
Encoding: 1491 1491 23
Width: 492
GlyphClass: 2
Flags: W
AnchorPoint: "+BBEENQQ3BEsEPARPBD0EPQQ+BDUA--4" 365 0 basechar 0
AnchorPoint: "+BBEENQQ3BEsEPARPBD0EPQQ+BDUA--3" 254 536 basechar 0
AnchorPoint: "+BBEENQQ3BEsEPARPBD0EPQQ+BDUA--2" 10 536 basechar 0
AnchorPoint: "+BBEENQQ3BEsEPARPBD0EPQQ+BDUA--1" 191 300 basechar 0
AnchorPoint: "+BBEENQQ3BEsEPARPBD0EPQQ+BDUA--0" 172 0 basechar 0
LayerCount: 2
Fore
SplineSet
320 -7 m 1,0,-1
 320 304 l 2,1,2
 320 371 320 371 327 414 c 128,-1,3
 334 457 334 457 339 482 c 1,4,-1
 339 483 l 1,5,-1
 61 483 l 2,6,7
 38 483 38 483 25 499 c 128,-1,8
 12 515 12 515 12 552 c 0,9,10
 12 572 12 572 15 591 c 128,-1,11
 18 610 18 610 26 647 c 1,12,-1
 53 647 l 1,13,-1
 53 644 l 2,14,15
 53 620 53 620 66.5 606 c 128,-1,16
 80 592 80 592 106 592 c 2,17,-1
 412 592 l 2,18,19
 429 592 429 592 435.5 585 c 128,-1,20
 442 578 442 578 442 559 c 2,21,-1
 442 483 l 1,22,-1
 375 483 l 1,23,-1
 389 29 l 1,24,25
 367 7 367 7 335 -7 c 1,26,-1
 320 -7 l 1,0,-1
EndSplineSet
PairPos2: "'kern' Horizontal Kerning in +BBgEMgRABDgEQgAA lookup 0 subtable" uni05E1 dx=-30 dy=0 dh=-30 dv=0 dx=0 dy=0 dh=0 dv=0
PairPos2: "'kern' Horizontal Kerning in +BBgEMgRABDgEQgAA lookup 0 subtable" uni05E4 dx=-20 dy=0 dh=-20 dv=0 dx=0 dy=0 dh=0 dv=0
PairPos2: "'kern' Horizontal Kerning in +BBgEMgRABDgEQgAA lookup 0 subtable" uni05DE dx=-30 dy=0 dh=-30 dv=0 dx=0 dy=0 dh=0 dv=0
PairPos2: "'kern' Horizontal Kerning in +BBgEMgRABDgEQgAA lookup 0 subtable" uni05D1 dx=-20 dy=0 dh=-20 dv=0 dx=0 dy=0 dh=0 dv=0
PairPos2: "'kern' Horizontal Kerning in +BBgEMgRABDgEQgAA lookup 0 subtable" uni05E2 dx=-10 dy=0 dh=-10 dv=0 dx=0 dy=0 dh=0 dv=0
PairPos2: "'kern' Horizontal Kerning in +BBgEMgRABDgEQgAA lookup 0 subtable" uni05D0 dx=-10 dy=0 dh=-10 dv=0 dx=0 dy=0 dh=0 dv=0
EndChar

StartChar: uni05A7
Encoding: 1447 1447 25
Width: 0
GlyphClass: 4
Flags: W
AnchorPoint: "+BBEENQQ3BEsEPARPBD0EPQQ+BDUA--6" 182 0 mark 0
AnchorPoint: "+BBEENQQ3BEsEPARPBD0EPQQ+BDUA--0" 182 0 mark 0
LayerCount: 2
Fore
SplineSet
64 -240 m 1,0,-1
 64 -203 l 1,1,-1
 129 -193 l 1,2,-1
 50 -90 l 1,3,-1
 182 -66 l 1,4,-1
 182 -101 l 1,5,-1
 116 -113 l 1,6,-1
 195 -216 l 1,7,-1
 64 -240 l 1,0,-1
EndSplineSet
EndChar

StartChar: uni05AD
Encoding: 1453 1453 26
Width: 0
GlyphClass: 4
Flags: W
AnchorPoint: "+BBEENQQ3BEsEPARPBD0EPQQ+BDUA--6" 75 0 mark 0
AnchorPoint: "+BBEENQQ3BEsEPARPBD0EPQQ+BDUA--0" 75 0 mark 0
LayerCount: 2
Fore
SplineSet
162 -238 m 1,0,-1
 158 -290 l 1,1,2
 126 -282 126 -282 103 -267.5 c 128,-1,3
 80 -253 80 -253 66 -234 c 0,4,5
 50 -211 50 -211 48 -174.5 c 128,-1,6
 46 -138 46 -138 50 -87 c 1,7,-1
 99 -84 l 1,8,9
 97 -114 97 -114 97 -150 c 128,-1,10
 97 -186 97 -186 107 -204 c 0,11,12
 119 -227 119 -227 162 -238 c 1,0,-1
EndSplineSet
EndChar

StartChar: uni0591
Encoding: 1425 1425 27
Width: 0
GlyphClass: 4
Flags: W
AnchorPoint: "+BBEENQQ3BEsEPARPBD0EPQQ+BDUA--6" 137 0 mark 0
AnchorPoint: "+BBEENQQ3BEsEPARPBD0EPQQ+BDUA--0" 137 0 mark 0
LayerCount: 2
Fore
SplineSet
114 -78 m 1,0,-1
 162 -75 l 1,1,-1
 162 -125 l 1,2,3
 185 -129 185 -129 200 -140.5 c 128,-1,4
 215 -152 215 -152 223 -168 c 256,5,6
 231 -184 231 -184 233.5 -198 c 128,-1,7
 236 -212 236 -212 236 -230 c 0,8,9
 236 -242 236 -242 235.5 -253.5 c 128,-1,10
 235 -265 235 -265 234 -276 c 1,11,-1
 187 -279 l 1,12,13
 189 -266 189 -266 189.5 -256.5 c 128,-1,14
 190 -247 190 -247 190 -237 c 0,15,16
 190 -202 190 -202 176 -185 c 128,-1,17
 162 -168 162 -168 137 -168 c 0,18,19
 86 -168 86 -168 86 -235 c 0,20,21
 86 -244 86 -244 86.5 -254 c 128,-1,22
 87 -264 87 -264 88 -276 c 1,23,-1
 42 -279 l 1,24,25
 39 -258 39 -258 39 -235 c 0,26,27
 39 -198 39 -198 53 -169 c 0,28,29
 70 -134 70 -134 114 -125 c 1,30,-1
 114 -78 l 1,0,-1
EndSplineSet
EndChar

StartChar: uni05DA
Encoding: 1498 1498 28
Width: 501
GlyphClass: 2
Flags: W
AnchorPoint: "+BBEENQQ3BEsEPARPBD0EPQQ+BDUA--4" 205 409 basechar 0
AnchorPoint: "+BBEENQQ3BEsEPARPBD0EPQQ+BDUA--3" 230 536 basechar 0
AnchorPoint: "+BBEENQQ3BEsEPARPBD0EPQQ+BDUA--2" 14 536 basechar 0
AnchorPoint: "+BBEENQQ3BEsEPARPBD0EPQQ+BDUA--1" 201 300 basechar 0
AnchorPoint: "+BBEENQQ3BEsEPARPBD0EPQQ+BDUA--0" 25 0 basechar 0
LayerCount: 2
Fore
SplineSet
344 -240 m 1,0,-1
 344 299 l 2,1,2
 344 413 344 413 373 481 c 1,3,-1
 373 483 l 1,4,-1
 61 483 l 2,5,6
 37 483 37 483 24.5 499.5 c 128,-1,7
 12 516 12 516 12 555 c 0,8,9
 12 572 12 572 15 591 c 128,-1,10
 18 610 18 610 26 647 c 1,11,-1
 53 647 l 1,12,-1
 53 644 l 2,13,14
 53 620 53 620 66.5 606 c 128,-1,15
 80 592 80 592 106 592 c 2,16,-1
 396 592 l 2,17,18
 413 592 413 592 419.5 585 c 128,-1,19
 426 578 426 578 426 559 c 2,20,-1
 426 494 l 1,21,22
 416 475 416 475 410 456 c 128,-1,23
 404 437 404 437 402.5 409 c 128,-1,24
 401 381 401 381 402 333 c 2,25,-1
 413 -204 l 1,26,27
 391 -226 391 -226 359 -240 c 1,28,-1
 344 -240 l 1,0,-1
EndSplineSet
EndChar

StartChar: uni05DD
Encoding: 1501 1501 30
Width: 582
GlyphClass: 2
Flags: W
AnchorPoint: "+BBEENQQ3BEsEPARPBD0EPQQ+BDUA--4" 279 0 basechar 0
AnchorPoint: "+BBEENQQ3BEsEPARPBD0EPQQ+BDUA--3" 285 536 basechar 0
AnchorPoint: "+BBEENQQ3BEsEPARPBD0EPQQ+BDUA--2" 70 536 basechar 0
AnchorPoint: "+BBEENQQ3BEsEPARPBD0EPQQ+BDUA--1" 279 300 basechar 0
AnchorPoint: "+BBEENQQ3BEsEPARPBD0EPQQ+BDUA--0" 70 0 basechar 0
LayerCount: 2
Fore
SplineSet
107 0 m 2,0,1
 85 0 85 0 70 13 c 128,-1,2
 55 26 55 26 55 71 c 2,3,-1
 55 332 l 2,4,5
 55 415 55 415 112 481 c 1,6,-1
 112 483 l 1,7,-1
 109 483 l 2,8,9
 86 483 86 483 74 500 c 128,-1,10
 62 517 62 517 62 555 c 0,11,12
 62 572 62 572 65 588.5 c 128,-1,13
 68 605 68 605 76 647 c 1,14,-1
 103 647 l 1,15,-1
 103 644 l 2,16,17
 103 619 103 619 117 605.5 c 128,-1,18
 131 592 131 592 155 592 c 2,19,-1
 386 592 l 2,20,21
 437 592 437 592 463 572 c 128,-1,22
 489 552 489 552 498 518.5 c 128,-1,23
 507 485 507 485 507 443 c 2,24,-1
 507 75 l 2,25,26
 507 40 507 40 488.5 20 c 128,-1,27
 470 0 470 0 436 0 c 2,28,-1
 107 0 l 2,0,1
109 109 m 1,29,-1
 407 109 l 2,30,31
 427 109 427 109 436.5 122.5 c 128,-1,32
 446 136 446 136 449.5 152.5 c 128,-1,33
 453 169 453 169 453 178 c 2,34,-1
 453 374 l 2,35,36
 453 432 453 432 426.5 457.5 c 128,-1,37
 400 483 400 483 362 483 c 2,38,-1
 168 483 l 1,39,40
 146 468 146 468 127.5 425.5 c 128,-1,41
 109 383 109 383 109 332 c 2,42,-1
 109 109 l 1,29,-1
EndSplineSet
EndChar

StartChar: uni05DF
Encoding: 1503 1503 31
Width: 280
GlyphClass: 2
Flags: W
AnchorPoint: "+BBEENQQ3BEsEPARPBD0EPQQ+BDUA--3" 117 536 basechar 0
AnchorPoint: "+BBEENQQ3BEsEPARPBD0EPQQ+BDUA--2" 20 536 basechar 0
AnchorPoint: "+BBEENQQ3BEsEPARPBD0EPQQ+BDUA--1" 62 300 basechar 0
AnchorPoint: "+BBEENQQ3BEsEPARPBD0EPQQ+BDUA--0" 20 0 basechar 0
LayerCount: 2
Fore
SplineSet
123 -240 m 1,0,-1
 123 299 l 2,1,2
 123 360 123 360 131 404 c 128,-1,3
 139 448 139 448 152 480 c 1,4,-1
 152 483 l 1,5,-1
 64 483 l 2,6,7
 41 483 41 483 28 499 c 128,-1,8
 15 515 15 515 15 552 c 0,9,10
 15 565 15 565 16 576 c 128,-1,11
 17 587 17 587 20.5 603 c 128,-1,12
 24 619 24 619 29 647 c 1,13,-1
 56 647 l 1,14,-1
 56 644 l 2,15,16
 56 619 56 619 70 605.5 c 128,-1,17
 84 592 84 592 109 592 c 2,18,-1
 175 592 l 2,19,20
 192 592 192 592 198.5 585 c 128,-1,21
 205 578 205 578 205 559 c 2,22,-1
 205 493 l 1,23,24
 195 476 195 476 189.5 458.5 c 128,-1,25
 184 441 184 441 182 412.5 c 128,-1,26
 180 384 180 384 181 333 c 2,27,-1
 192 -204 l 1,28,29
 170 -226 170 -226 138 -240 c 1,30,-1
 123 -240 l 1,0,-1
EndSplineSet
EndChar

StartChar: uni05E3
Encoding: 1507 1507 32
Width: 552
GlyphClass: 2
Flags: W
AnchorPoint: "+BBEENQQ3BEsEPARPBD0EPQQ+BDUA--3" 262 536 basechar 0
AnchorPoint: "+BBEENQQ3BEsEPARPBD0EPQQ+BDUA--2" 10 536 basechar 0
AnchorPoint: "+BBEENQQ3BEsEPARPBD0EPQQ+BDUA--1" 327 278 basechar 0
AnchorPoint: "+BBEENQQ3BEsEPARPBD0EPQQ+BDUA--0" 10 0 basechar 0
LayerCount: 2
Fore
SplineSet
212 217 m 1,0,1
 198 232 198 232 183.5 241 c 128,-1,2
 169 250 169 250 146 250 c 0,3,4
 120 250 120 250 106.5 244 c 128,-1,5
 93 238 93 238 73 227 c 1,6,-1
 46 227 l 1,7,-1
 46 240 l 2,8,9
 46 283 46 283 54.5 329 c 128,-1,10
 63 375 63 375 77 415.5 c 128,-1,11
 91 456 91 456 106 481 c 1,12,-1
 106 483 l 1,13,-1
 74 483 l 2,14,15
 50 483 50 483 37.5 499 c 128,-1,16
 25 515 25 515 25 555 c 0,17,18
 25 572 25 572 28 588.5 c 128,-1,19
 31 605 31 605 39 647 c 1,20,-1
 66 647 l 1,21,-1
 66 645 l 2,22,23
 66 620 66 620 81.5 606 c 128,-1,24
 97 592 97 592 117 592 c 2,25,-1
 360 592 l 2,26,27
 475 592 475 592 476 478 c 2,28,-1
 487 -204 l 1,29,30
 465 -226 465 -226 433 -240 c 1,31,-1
 418 -240 l 1,32,-1
 418 423 l 2,33,34
 418 456 418 456 403 469.5 c 128,-1,35
 388 483 388 483 354 483 c 2,36,-1
 152 483 l 1,37,38
 140 453 140 453 125.5 410.5 c 128,-1,39
 111 368 111 368 111 322 c 2,40,-1
 111 316 l 1,41,42
 121 322 121 322 135 329 c 128,-1,43
 149 336 149 336 170 336 c 0,44,45
 194 336 194 336 215 322.5 c 128,-1,46
 236 309 236 309 236 278 c 0,47,48
 236 256 236 256 226.5 240.5 c 128,-1,49
 217 225 217 225 212 217 c 1,0,1
EndSplineSet
EndChar

StartChar: uni05E5
Encoding: 1509 1509 34
Width: 491
GlyphClass: 2
Flags: W
AnchorPoint: "+BBEENQQ3BEsEPARPBD0EPQQ+BDUA--3" 261 536 basechar 0
AnchorPoint: "+BBEENQQ3BEsEPARPBD0EPQQ+BDUA--2" 1 536 basechar 0
AnchorPoint: "+BBEENQQ3BEsEPARPBD0EPQQ+BDUA--1" 210 399 basechar 0
AnchorPoint: "+BBEENQQ3BEsEPARPBD0EPQQ+BDUA--0" -11 0 basechar 0
LayerCount: 2
Fore
SplineSet
105 -240 m 1,0,-1
 105 299 l 2,1,2
 105 360 105 360 113 406 c 128,-1,3
 121 452 121 452 134 484 c 1,4,-1
 134 486 l 1,5,-1
 100 491 l 2,6,7
 75 495 75 495 62.5 505.5 c 128,-1,8
 50 516 50 516 50 554 c 0,9,10
 50 570 50 570 54 589 c 128,-1,11
 58 608 58 608 74 647 c 1,12,-1
 101 647 l 1,13,-1
 101 644 l 2,14,15
 101 620 101 620 111.5 609 c 128,-1,16
 122 598 122 598 143 595 c 2,17,-1
 197 588 l 2,18,19
 236 583 236 583 236 538 c 0,20,21
 236 525 236 525 233 502.5 c 128,-1,22
 230 480 230 480 228 473 c 1,23,-1
 173 481 l 1,24,25
 160 453 160 453 153.5 412.5 c 128,-1,26
 147 372 147 372 150 300 c 2,27,-1
 154 208 l 1,28,29
 177 261 177 261 208 303.5 c 128,-1,30
 239 346 239 346 276 385.5 c 128,-1,31
 313 425 313 425 353 467 c 2,32,-1
 373 488 l 1,33,-1
 350 491 l 2,34,35
 325 495 325 495 312.5 505.5 c 128,-1,36
 300 516 300 516 300 554 c 0,37,38
 300 570 300 570 304 588.5 c 128,-1,39
 308 607 308 607 324 647 c 1,40,-1
 351 647 l 1,41,-1
 351 644 l 2,42,43
 351 620 351 620 361.5 609 c 128,-1,44
 372 598 372 598 393 595 c 2,45,-1
 447 588 l 2,46,47
 486 583 486 583 486 538 c 0,48,49
 486 525 486 525 483 502.5 c 128,-1,50
 480 480 480 480 478 473 c 1,51,-1
 422 481 l 1,52,-1
 392 448 l 2,53,54
 331 382 331 382 277 309.5 c 128,-1,55
 223 237 223 237 190.5 162.5 c 128,-1,56
 158 88 158 88 162 15 c 2,57,-1
 174 -204 l 1,58,59
 152 -226 152 -226 120 -240 c 1,60,-1
 105 -240 l 1,0,-1
EndSplineSet
EndChar

StartChar: uniFB26
Encoding: 64294 64294 35
Width: 882
Flags: W
LayerCount: 2
Fore
SplineSet
107 0 m 2,0,1
 85 0 85 0 70 13 c 128,-1,2
 55 26 55 26 55 71 c 2,3,-1
 55 332 l 2,4,5
 55 415 55 415 112 481 c 1,6,-1
 112 483 l 1,7,-1
 109 483 l 2,8,9
 86 483 86 483 74 500 c 128,-1,10
 62 517 62 517 62 555 c 0,11,12
 62 572 62 572 65 588.5 c 128,-1,13
 68 605 68 605 76 647 c 1,14,-1
 103 647 l 1,15,-1
 103 644 l 2,16,17
 103 619 103 619 117 605.5 c 128,-1,18
 131 592 131 592 155 592 c 2,19,-1
 686 592 l 2,20,21
 737 592 737 592 763 572 c 128,-1,22
 789 552 789 552 798 518.5 c 128,-1,23
 807 485 807 485 807 443 c 2,24,-1
 807 75 l 2,25,26
 807 40 807 40 788.5 20 c 128,-1,27
 770 0 770 0 736 0 c 2,28,-1
 107 0 l 2,0,1
109 109 m 1,29,-1
 707 109 l 2,30,31
 727 109 727 109 736.5 122.5 c 128,-1,32
 746 136 746 136 749.5 152.5 c 128,-1,33
 753 169 753 169 753 178 c 2,34,-1
 753 374 l 2,35,36
 753 432 753 432 726.5 457.5 c 128,-1,37
 700 483 700 483 662 483 c 2,38,-1
 168 483 l 1,39,40
 146 468 146 468 127.5 425.5 c 128,-1,41
 109 383 109 383 109 332 c 2,42,-1
 109 109 l 1,29,-1
EndSplineSet
EndChar

StartChar: uni05F3
Encoding: 1523 1523 36
Width: 228
Flags: W
LayerCount: 2
Fore
SplineSet
39 379 m 1,0,-1
 39 423 l 1,1,2
 68 433 68 433 85.5 453.5 c 128,-1,3
 103 474 103 474 103 496 c 0,4,5
 103 511 103 511 92 519 c 128,-1,6
 81 527 81 527 66.5 534 c 128,-1,7
 52 541 52 541 41 553 c 128,-1,8
 30 565 30 565 30 588 c 0,9,10
 30 617 30 617 48.5 632 c 128,-1,11
 67 647 67 647 95 647 c 0,12,13
 126 647 126 647 149 624.5 c 128,-1,14
 172 602 172 602 172 560 c 0,15,16
 172 504 172 504 138.5 453 c 128,-1,17
 105 402 105 402 39 379 c 1,0,-1
EndSplineSet
EndChar

StartChar: uni059C
Encoding: 1436 1436 37
Width: 0
GlyphClass: 4
Flags: W
AnchorPoint: "+BBEENQQ3BEsEPARPBD0EPQQ+BDUA--8" 75 536 mark 0
AnchorPoint: "+BBEENQQ3BEsEPARPBD0EPQQ+BDUA--2" 75 536 mark 0
LayerCount: 2
Fore
SplineSet
164 811 m 1,0,1
 121 800 121 800 109 777 c 0,2,3
 99 759 99 759 99 723 c 128,-1,4
 99 687 99 687 101 657 c 1,5,-1
 52 660 l 1,6,7
 48 711 48 711 50 748 c 128,-1,8
 52 785 52 785 68 807 c 0,9,10
 82 826 82 826 105 841 c 128,-1,11
 128 856 128 856 160 863 c 1,12,-1
 164 811 l 1,0,1
EndSplineSet
EndChar

StartChar: uni059D
Encoding: 1437 1437 38
Width: 0
GlyphClass: 4
Flags: W
AnchorPoint: "+BBEENQQ3BEsEPARPBD0EPQQ+BDUA--9" 150 536 mark 0
AnchorPoint: "+BBEENQQ3BEsEPARPBD0EPQQ+BDUA--3" 150 536 mark 0
LayerCount: 2
Fore
SplineSet
164 811 m 1,0,1
 121 800 121 800 109 777 c 0,2,3
 99 759 99 759 99 723 c 128,-1,4
 99 687 99 687 101 657 c 1,5,-1
 52 660 l 1,6,7
 48 711 48 711 50 748 c 128,-1,8
 52 785 52 785 68 807 c 0,9,10
 82 826 82 826 105 841 c 128,-1,11
 128 856 128 856 160 863 c 1,12,-1
 164 811 l 1,0,1
EndSplineSet
EndChar

StartChar: uni05F4
Encoding: 1524 1524 39
Width: 428
Flags: W
LayerCount: 2
Fore
SplineSet
39 379 m 1,0,-1
 39 423 l 1,1,2
 68 433 68 433 85.5 453.5 c 128,-1,3
 103 474 103 474 103 496 c 0,4,5
 103 511 103 511 92 519 c 128,-1,6
 81 527 81 527 66.5 534 c 128,-1,7
 52 541 52 541 41 553 c 128,-1,8
 30 565 30 565 30 588 c 0,9,10
 30 617 30 617 48.5 632 c 128,-1,11
 67 647 67 647 95 647 c 0,12,13
 126 647 126 647 149 624.5 c 128,-1,14
 172 602 172 602 172 560 c 0,15,16
 172 504 172 504 138.5 453 c 128,-1,17
 105 402 105 402 39 379 c 1,0,-1
239 379 m 1,18,-1
 239 423 l 1,19,20
 268 433 268 433 285.5 453.5 c 128,-1,21
 303 474 303 474 303 496 c 0,22,23
 303 511 303 511 292 519 c 128,-1,24
 281 527 281 527 266.5 534 c 128,-1,25
 252 541 252 541 241 553 c 128,-1,26
 230 565 230 565 230 588 c 0,27,28
 230 617 230 617 248.5 632 c 128,-1,29
 267 647 267 647 295 647 c 0,30,31
 326 647 326 647 349 624.5 c 128,-1,32
 372 602 372 602 372 560 c 0,33,34
 372 504 372 504 338.5 453 c 128,-1,35
 305 402 305 402 239 379 c 1,18,-1
EndSplineSet
EndChar

StartChar: uni059E
Encoding: 1438 1438 40
Width: 0
GlyphClass: 4
Flags: W
AnchorPoint: "+BBEENQQ3BEsEPARPBD0EPQQ+BDUA--9" 151 536 mark 0
AnchorPoint: "+BBEENQQ3BEsEPARPBD0EPQQ+BDUA--3" 151 536 mark 0
LayerCount: 2
Fore
SplineSet
164 811 m 1,0,1
 121 800 121 800 109 777 c 0,2,3
 99 759 99 759 99 723 c 128,-1,4
 99 687 99 687 101 657 c 1,5,-1
 52 660 l 1,6,7
 48 711 48 711 50 748 c 128,-1,8
 52 785 52 785 68 807 c 0,9,10
 82 826 82 826 105 841 c 128,-1,11
 128 856 128 856 160 863 c 1,12,-1
 164 811 l 1,0,1
296 811 m 1,13,14
 253 800 253 800 241 777 c 0,15,16
 231 759 231 759 231 723 c 128,-1,17
 231 687 231 687 233 657 c 1,18,-1
 184 660 l 1,19,20
 180 711 180 711 182 748 c 128,-1,21
 184 785 184 785 200 807 c 0,22,23
 214 826 214 826 237 841 c 128,-1,24
 260 856 260 856 292 863 c 1,25,-1
 296 811 l 1,13,14
EndSplineSet
EndChar

StartChar: uni05D2
Encoding: 1490 1490 41
Width: 377
GlyphClass: 2
Flags: W
AnchorPoint: "+BBEENQQ3BEsEPARPBD0EPQQ+BDUA--4" 241 0 basechar 0
AnchorPoint: "+BBEENQQ3BEsEPARPBD0EPQQ+BDUA--3" 175 536 basechar 0
AnchorPoint: "+BBEENQQ3BEsEPARPBD0EPQQ+BDUA--2" 53 536 basechar 0
AnchorPoint: "+BBEENQQ3BEsEPARPBD0EPQQ+BDUA--1" 132 300 basechar 0
AnchorPoint: "+BBEENQQ3BEsEPARPBD0EPQQ+BDUA--0" 15 0 basechar 0
LayerCount: 2
Fore
SplineSet
304 -9 m 1,0,1
 285 35 285 35 272 60.5 c 128,-1,2
 259 86 259 86 244 111 c 1,3,-1
 216 41 l 2,4,5
 200 0 200 0 164 0 c 2,6,-1
 12 0 l 1,7,-1
 39 109 l 1,8,-1
 142 109 l 2,9,10
 161 109 161 109 181 116 c 128,-1,11
 201 123 201 123 215 136.5 c 128,-1,12
 229 150 229 150 229 167 c 2,13,-1
 229 447 l 2,14,15
 229 467 229 467 224 475 c 128,-1,16
 219 483 219 483 202 483 c 2,17,-1
 136 483 l 2,18,19
 112 483 112 483 99.5 499.5 c 128,-1,20
 87 516 87 516 87 555 c 0,21,22
 87 572 87 572 90 591 c 128,-1,23
 93 610 93 610 101 647 c 1,24,-1
 128 647 l 1,25,-1
 128 644 l 2,26,27
 128 620 128 620 141.5 606 c 128,-1,28
 155 592 155 592 181 592 c 2,29,-1
 236 592 l 2,30,31
 262 592 262 592 272.5 579.5 c 128,-1,32
 283 567 283 567 283 535 c 2,33,-1
 283 231 l 2,34,35
 283 207 283 207 286.5 190 c 128,-1,36
 290 173 290 173 297 155.5 c 128,-1,37
 304 138 304 138 315 113 c 2,38,-1
 357 16 l 1,39,40
 351 6 351 6 336.5 -1 c 128,-1,41
 322 -8 322 -8 313 -9 c 2,42,-1
 304 -9 l 1,0,1
EndSplineSet
PairPos2: "'kern' Horizontal Kerning in +BBgEMgRABDgEQgAA lookup 0 subtable" uni05D8 dx=-30 dy=0 dh=-30 dv=0 dx=0 dy=0 dh=0 dv=0
PairPos2: "'kern' Horizontal Kerning in +BBgEMgRABDgEQgAA lookup 0 subtable" uni05E1 dx=-30 dy=0 dh=-30 dv=0 dx=0 dy=0 dh=0 dv=0
PairPos2: "'kern' Horizontal Kerning in +BBgEMgRABDgEQgAA lookup 0 subtable" uni05E4 dx=-10 dy=0 dh=-10 dv=0 dx=0 dy=0 dh=0 dv=0
PairPos2: "'kern' Horizontal Kerning in +BBgEMgRABDgEQgAA lookup 0 subtable" uni05DE dx=-10 dy=0 dh=-10 dv=0 dx=0 dy=0 dh=0 dv=0
PairPos2: "'kern' Horizontal Kerning in +BBgEMgRABDgEQgAA lookup 0 subtable" uni05DC dx=-30 dy=0 dh=-30 dv=0 dx=0 dy=0 dh=0 dv=0
PairPos2: "'kern' Horizontal Kerning in +BBgEMgRABDgEQgAA lookup 0 subtable" uni05E2 dx=-60 dy=0 dh=-60 dv=0 dx=0 dy=0 dh=0 dv=0
EndChar

StartChar: uni05B2
Encoding: 1458 1458 43
Width: 0
GlyphClass: 4
Flags: W
AnchorPoint: "+BBEENQQ3BEsEPARPBD0EPQQ+BDUA--10" 189 0 mark 0
AnchorPoint: "+BBEENQQ3BEsEPARPBD0EPQQ+BDUA--4" 189 0 mark 0
LayerCount: 2
Fore
SplineSet
288 -155 m 256,0,1
 271 -155 271 -155 260.5 -144.5 c 128,-1,2
 250 -134 250 -134 250 -112 c 0,3,4
 250 -91 250 -91 260.5 -80.5 c 128,-1,5
 271 -70 271 -70 288 -70 c 256,6,7
 305 -70 305 -70 315.5 -80.5 c 128,-1,8
 326 -91 326 -91 326 -112 c 0,9,10
 326 -134 326 -134 315.5 -144.5 c 128,-1,11
 305 -155 305 -155 288 -155 c 256,0,1
52 -139 m 1,12,-1
 55 -86 l 1,13,-1
 213 -86 l 1,14,-1
 210 -139 l 1,15,-1
 52 -139 l 1,12,-1
287 -276 m 256,16,17
 270 -276 270 -276 259 -265.5 c 128,-1,18
 248 -255 248 -255 248 -233 c 256,19,20
 248 -211 248 -211 259 -201 c 128,-1,21
 270 -191 270 -191 287 -191 c 256,22,23
 304 -191 304 -191 314.5 -201 c 128,-1,24
 325 -211 325 -211 325 -233 c 256,25,26
 325 -255 325 -255 314.5 -265.5 c 128,-1,27
 304 -276 304 -276 287 -276 c 256,16,17
EndSplineSet
EndChar

StartChar: hatafpatah_zerowidthjoiner_siluqlefthb
Encoding: 65537 -1 44
Width: 0
GlyphClass: 4
Flags: W
AnchorPoint: "+BBEENQQ3BEsEPARPBD0EPQQ+BDUA--10" 226 0 mark 0
AnchorPoint: "+BBEENQQ3BEsEPARPBD0EPQQ+BDUA--4" 226 0 mark 0
LayerCount: 2
Fore
SplineSet
242 -276 m 1,0,-1
 242 -73 l 1,1,-1
 295 -70 l 1,2,-1
 295 -273 l 1,3,-1
 242 -276 l 1,0,-1
366 -155 m 0,4,5
 350 -155 350 -155 339.5 -144.5 c 128,-1,6
 329 -134 329 -134 329 -112 c 0,7,8
 329 -91 329 -91 339.5 -80.5 c 128,-1,9
 350 -70 350 -70 366 -70 c 0,10,11
 383 -70 383 -70 394 -80.5 c 128,-1,12
 405 -91 405 -91 405 -112 c 0,13,14
 405 -134 405 -134 394 -144.5 c 128,-1,15
 383 -155 383 -155 366 -155 c 0,4,5
47 -139 m 1,16,-1
 50 -86 l 1,17,-1
 208 -86 l 1,18,-1
 205 -139 l 1,19,-1
 47 -139 l 1,16,-1
368 -276 m 256,20,21
 351 -276 351 -276 340 -265.5 c 128,-1,22
 329 -255 329 -255 329 -233 c 256,23,24
 329 -211 329 -211 340 -201 c 128,-1,25
 351 -191 351 -191 368 -191 c 256,26,27
 385 -191 385 -191 395.5 -201 c 128,-1,28
 406 -211 406 -211 406 -233 c 256,29,30
 406 -255 406 -255 395.5 -265.5 c 128,-1,31
 385 -276 385 -276 368 -276 c 256,20,21
EndSplineSet
Ligature2: "'ccmp' +BBoEPgQ8BD8EPgQ3BDgERgQ4BE8A-/+BDQENQQ6BD4EPAQ/BD4ENwQ4BEYEOARP +BDMEOwQ4BEQEMAAA in +BBgEMgRABDgEQgAA lookup 1 subtable" uni05B2 uni200D uni05BD
EndChar

StartChar: uni05B3
Encoding: 1459 1459 45
Width: 0
GlyphClass: 4
Flags: W
AnchorPoint: "+BBEENQQ3BEsEPARPBD0EPQQ+BDUA--10" 189 0 mark 0
AnchorPoint: "+BBEENQQ3BEsEPARPBD0EPQQ+BDUA--4" 189 0 mark 0
LayerCount: 2
Fore
SplineSet
288 -155 m 256,0,1
 271 -155 271 -155 260.5 -144.5 c 128,-1,2
 250 -134 250 -134 250 -112 c 0,3,4
 250 -91 250 -91 260.5 -80.5 c 128,-1,5
 271 -70 271 -70 288 -70 c 256,6,7
 305 -70 305 -70 315.5 -80.5 c 128,-1,8
 326 -91 326 -91 326 -112 c 0,9,10
 326 -134 326 -134 315.5 -144.5 c 128,-1,11
 305 -155 305 -155 288 -155 c 256,0,1
106 -260 m 1,12,-1
 112 -139 l 1,13,-1
 52 -139 l 1,14,-1
 55 -86 l 1,15,-1
 213 -86 l 1,16,-1
 210 -139 l 1,17,-1
 154 -139 l 1,18,-1
 160 -257 l 1,19,-1
 106 -260 l 1,12,-1
287 -276 m 256,20,21
 270 -276 270 -276 259 -265.5 c 128,-1,22
 248 -255 248 -255 248 -233 c 256,23,24
 248 -211 248 -211 259 -201 c 128,-1,25
 270 -191 270 -191 287 -191 c 256,26,27
 304 -191 304 -191 314.5 -201 c 128,-1,28
 325 -211 325 -211 325 -233 c 256,29,30
 325 -255 325 -255 314.5 -265.5 c 128,-1,31
 304 -276 304 -276 287 -276 c 256,20,21
EndSplineSet
EndChar

StartChar: hatafqamats_zerowidthjoiner_siluqlefthb
Encoding: 65538 -1 46
Width: 0
GlyphClass: 4
Flags: W
AnchorPoint: "+BBEENQQ3BEsEPARPBD0EPQQ+BDUA--10" 226 0 mark 0
AnchorPoint: "+BBEENQQ3BEsEPARPBD0EPQQ+BDUA--4" 226 0 mark 0
LayerCount: 2
Fore
SplineSet
242 -276 m 1,0,-1
 242 -73 l 1,1,-1
 295 -70 l 1,2,-1
 295 -273 l 1,3,-1
 242 -276 l 1,0,-1
366 -155 m 0,4,5
 350 -155 350 -155 339.5 -144.5 c 128,-1,6
 329 -134 329 -134 329 -112 c 0,7,8
 329 -91 329 -91 339.5 -80.5 c 128,-1,9
 350 -70 350 -70 366 -70 c 0,10,11
 383 -70 383 -70 394 -80.5 c 128,-1,12
 405 -91 405 -91 405 -112 c 0,13,14
 405 -134 405 -134 394 -144.5 c 128,-1,15
 383 -155 383 -155 366 -155 c 0,4,5
101 -260 m 1,16,-1
 108 -139 l 1,17,-1
 47 -139 l 1,18,-1
 50 -86 l 1,19,-1
 208 -86 l 1,20,-1
 205 -139 l 1,21,-1
 149 -139 l 1,22,-1
 155 -260 l 1,23,-1
 101 -260 l 1,16,-1
368 -276 m 256,24,25
 351 -276 351 -276 340 -265.5 c 128,-1,26
 329 -255 329 -255 329 -233 c 256,27,28
 329 -211 329 -211 340 -201 c 128,-1,29
 351 -191 351 -191 368 -191 c 256,30,31
 385 -191 385 -191 395.5 -201 c 128,-1,32
 406 -211 406 -211 406 -233 c 256,33,34
 406 -255 406 -255 395.5 -265.5 c 128,-1,35
 385 -276 385 -276 368 -276 c 256,24,25
EndSplineSet
Ligature2: "'ccmp' +BBoEPgQ8BD8EPgQ3BDgERgQ4BE8A-/+BDQENQQ6BD4EPAQ/BD4ENwQ4BEYEOARP +BDMEOwQ4BEQEMAAA in +BBgEMgRABDgEQgAA lookup 1 subtable" uni05B3 uni200D uni05BD
EndChar

StartChar: uni05B1
Encoding: 1457 1457 47
Width: 0
GlyphClass: 4
Flags: W
AnchorPoint: "+BBEENQQ3BEsEPARPBD0EPQQ+BDUA--10" 193 0 mark 0
AnchorPoint: "+BBEENQQ3BEsEPARPBD0EPQQ+BDUA--4" 193 0 mark 0
LayerCount: 2
Fore
SplineSet
69 -155 m 256,0,1
 52 -155 52 -155 41.5 -144.5 c 128,-1,2
 31 -134 31 -134 31 -112 c 0,3,4
 31 -91 31 -91 41.5 -80.5 c 128,-1,5
 52 -70 52 -70 69 -70 c 256,6,7
 86 -70 86 -70 96.5 -80.5 c 128,-1,8
 107 -91 107 -91 107 -112 c 0,9,10
 107 -134 107 -134 96.5 -144.5 c 128,-1,11
 86 -155 86 -155 69 -155 c 256,0,1
206 -155 m 0,12,13
 190 -155 190 -155 179.5 -144.5 c 128,-1,14
 169 -134 169 -134 169 -112 c 0,15,16
 169 -91 169 -91 179.5 -80.5 c 128,-1,17
 190 -70 190 -70 206 -70 c 0,18,19
 223 -70 223 -70 234 -80.5 c 128,-1,20
 245 -91 245 -91 245 -112 c 0,21,22
 245 -134 245 -134 234 -144.5 c 128,-1,23
 223 -155 223 -155 206 -155 c 0,12,13
316 -155 m 0,24,25
 300 -155 300 -155 289.5 -144.5 c 128,-1,26
 279 -134 279 -134 279 -112 c 0,27,28
 279 -91 279 -91 289.5 -80.5 c 128,-1,29
 300 -70 300 -70 316 -70 c 0,30,31
 333 -70 333 -70 344 -80.5 c 128,-1,32
 355 -91 355 -91 355 -112 c 0,33,34
 355 -134 355 -134 344 -144.5 c 128,-1,35
 333 -155 333 -155 316 -155 c 0,24,25
317 -276 m 0,36,37
 301 -276 301 -276 290 -265.5 c 128,-1,38
 279 -255 279 -255 279 -233 c 256,39,40
 279 -211 279 -211 290 -201 c 128,-1,41
 301 -191 301 -191 317 -191 c 0,42,43
 334 -191 334 -191 345 -201 c 128,-1,44
 356 -211 356 -211 356 -233 c 256,45,46
 356 -255 356 -255 345 -265.5 c 128,-1,47
 334 -276 334 -276 317 -276 c 0,36,37
138 -276 m 256,48,49
 121 -276 121 -276 110 -265.5 c 128,-1,50
 99 -255 99 -255 99 -233 c 256,51,52
 99 -211 99 -211 110 -201 c 128,-1,53
 121 -191 121 -191 138 -191 c 256,54,55
 155 -191 155 -191 165.5 -201 c 128,-1,56
 176 -211 176 -211 176 -233 c 256,57,58
 176 -255 176 -255 165.5 -265.5 c 128,-1,59
 155 -276 155 -276 138 -276 c 256,48,49
EndSplineSet
EndChar

StartChar: hatafsegol_zerowidthjoiner_siluqlefthb
Encoding: 65539 -1 48
Width: 0
GlyphClass: 4
Flags: W
AnchorPoint: "+BBEENQQ3BEsEPARPBD0EPQQ+BDUA--10" 232 0 mark 0
AnchorPoint: "+BBEENQQ3BEsEPARPBD0EPQQ+BDUA--4" 232 0 mark 0
LayerCount: 2
Fore
SplineSet
274 -276 m 1,0,-1
 274 -73 l 1,1,-1
 327 -70 l 1,2,-1
 327 -273 l 1,3,-1
 274 -276 l 1,0,-1
64 -155 m 256,4,5
 47 -155 47 -155 36.5 -144.5 c 128,-1,6
 26 -134 26 -134 26 -112 c 0,7,8
 26 -91 26 -91 36.5 -80.5 c 128,-1,9
 47 -70 47 -70 64 -70 c 256,10,11
 81 -70 81 -70 91.5 -80.5 c 128,-1,12
 102 -91 102 -91 102 -112 c 0,13,14
 102 -134 102 -134 91.5 -144.5 c 128,-1,15
 81 -155 81 -155 64 -155 c 256,4,5
201 -155 m 0,16,17
 185 -155 185 -155 174.5 -144.5 c 128,-1,18
 164 -134 164 -134 164 -112 c 0,19,20
 164 -91 164 -91 174.5 -80.5 c 128,-1,21
 185 -70 185 -70 201 -70 c 0,22,23
 218 -70 218 -70 229 -80.5 c 128,-1,24
 240 -91 240 -91 240 -112 c 0,25,26
 240 -134 240 -134 229 -144.5 c 128,-1,27
 218 -155 218 -155 201 -155 c 0,16,17
398 -155 m 0,28,29
 382 -155 382 -155 371.5 -144.5 c 128,-1,30
 361 -134 361 -134 361 -112 c 0,31,32
 361 -91 361 -91 371.5 -80.5 c 128,-1,33
 382 -70 382 -70 398 -70 c 0,34,35
 415 -70 415 -70 426 -80.5 c 128,-1,36
 437 -91 437 -91 437 -112 c 0,37,38
 437 -134 437 -134 426 -144.5 c 128,-1,39
 415 -155 415 -155 398 -155 c 0,28,29
133 -276 m 256,40,41
 116 -276 116 -276 105 -265.5 c 128,-1,42
 94 -255 94 -255 94 -233 c 256,43,44
 94 -211 94 -211 105 -201 c 128,-1,45
 116 -191 116 -191 133 -191 c 256,46,47
 150 -191 150 -191 160.5 -201 c 128,-1,48
 171 -211 171 -211 171 -233 c 256,49,50
 171 -255 171 -255 160.5 -265.5 c 128,-1,51
 150 -276 150 -276 133 -276 c 256,40,41
399 -276 m 0,52,53
 383 -276 383 -276 372 -265.5 c 128,-1,54
 361 -255 361 -255 361 -233 c 256,55,56
 361 -211 361 -211 372 -201 c 128,-1,57
 383 -191 383 -191 399 -191 c 0,58,59
 416 -191 416 -191 427 -201 c 128,-1,60
 438 -211 438 -211 438 -233 c 256,61,62
 438 -255 438 -255 427 -265.5 c 128,-1,63
 416 -276 416 -276 399 -276 c 0,52,53
EndSplineSet
Ligature2: "'ccmp' +BBoEPgQ8BD8EPgQ3BDgERgQ4BE8A-/+BDQENQQ6BD4EPAQ/BD4ENwQ4BEYEOARP +BDMEOwQ4BEQEMAAA in +BBgEMgRABDgEQgAA lookup 1 subtable" uni05B1 uni200D uni05BD
EndChar

StartChar: uni05D4
Encoding: 1492 1492 49
Width: 605
GlyphClass: 2
Flags: W
AnchorPoint: "+BBEENQQ3BEsEPARPBD0EPQQ+BDUA--4" 298 0 basechar 0
AnchorPoint: "+BBEENQQ3BEsEPARPBD0EPQQ+BDUA--3" 301 536 basechar 0
AnchorPoint: "+BBEENQQ3BEsEPARPBD0EPQQ+BDUA--2" 71 536 basechar 0
AnchorPoint: "+BBEENQQ3BEsEPARPBD0EPQQ+BDUA--1" 297 300 basechar 0
AnchorPoint: "+BBEENQQ3BEsEPARPBD0EPQQ+BDUA--0" 85 0 basechar 0
LayerCount: 2
Fore
SplineSet
448 -7 m 1,0,-1
 448 300 l 2,1,2
 448 369 448 369 455 412 c 128,-1,3
 462 455 462 455 467 480 c 1,4,-1
 467 483 l 1,5,-1
 109 483 l 2,6,7
 86 483 86 483 73 499 c 128,-1,8
 60 515 60 515 60 552 c 0,9,10
 60 572 60 572 63 591 c 128,-1,11
 66 610 66 610 74 647 c 1,12,-1
 101 647 l 1,13,-1
 101 637 l 2,14,15
 101 613 101 613 116 602.5 c 128,-1,16
 131 592 131 592 154 592 c 2,17,-1
 500 592 l 2,18,19
 517 592 517 592 523.5 585 c 128,-1,20
 530 578 530 578 530 559 c 2,21,-1
 530 492 l 1,22,-1
 504 483 l 1,23,-1
 517 29 l 1,24,25
 495 7 495 7 463 -7 c 1,26,-1
 448 -7 l 1,0,-1
78 -7 m 1,27,-1
 78 262 l 2,28,29
 78 296 78 296 85 313 c 128,-1,30
 92 330 92 330 108 334 c 2,31,-1
 140 343 l 1,32,-1
 146 336 l 1,33,-1
 147 29 l 1,34,35
 125 7 125 7 93 -7 c 1,36,-1
 78 -7 l 1,27,-1
EndSplineSet
PairPos2: "'kern' Horizontal Kerning in +BBgEMgRABDgEQgAA lookup 0 subtable" uni05E2 dx=-10 dy=0 dh=-10 dv=0 dx=0 dy=0 dh=0 dv=0
EndChar

StartChar: uni05D7
Encoding: 1495 1495 51
Width: 630
GlyphClass: 2
Flags: W
AnchorPoint: "+BBEENQQ3BEsEPARPBD0EPQQ+BDUA--4" 337 0 basechar 0
AnchorPoint: "+BBEENQQ3BEsEPARPBD0EPQQ+BDUA--3" 339 536 basechar 0
AnchorPoint: "+BBEENQQ3BEsEPARPBD0EPQQ+BDUA--2" 85 536 basechar 0
AnchorPoint: "+BBEENQQ3BEsEPARPBD0EPQQ+BDUA--1" 337 300 basechar 0
AnchorPoint: "+BBEENQQ3BEsEPARPBD0EPQQ+BDUA--0" 85 0 basechar 0
LayerCount: 2
Fore
SplineSet
122 -7 m 1,0,-1
 122 299 l 2,1,2
 122 366 122 366 129 410.5 c 128,-1,3
 136 455 136 455 141 480 c 1,4,-1
 141 483 l 1,5,-1
 124 483 l 2,6,7
 100 483 100 483 87.5 499.5 c 128,-1,8
 75 516 75 516 75 555 c 0,9,10
 75 572 75 572 78 591 c 128,-1,11
 81 610 81 610 89 647 c 1,12,-1
 116 647 l 1,13,-1
 116 644 l 2,14,15
 116 620 116 620 129.5 606 c 128,-1,16
 143 592 143 592 169 592 c 2,17,-1
 535 592 l 2,18,19
 552 592 552 592 558.5 585 c 128,-1,20
 565 578 565 578 565 559 c 2,21,-1
 565 492 l 1,22,-1
 539 483 l 1,23,-1
 552 29 l 1,24,25
 530 7 530 7 498 -7 c 1,26,-1
 483 -7 l 1,27,-1
 483 299 l 2,28,29
 483 366 483 366 490 410.5 c 128,-1,30
 497 455 497 455 502 480 c 1,31,-1
 502 483 l 1,32,-1
 181 483 l 1,33,-1
 191 29 l 1,34,35
 169 7 169 7 137 -7 c 1,36,-1
 122 -7 l 1,0,-1
EndSplineSet
PairPos2: "'kern' Horizontal Kerning in +BBgEMgRABDgEQgAA lookup 0 subtable" uni05E1 dx=-20 dy=0 dh=-20 dv=0 dx=0 dy=0 dh=0 dv=0
PairPos2: "'kern' Horizontal Kerning in +BBgEMgRABDgEQgAA lookup 0 subtable" uni05DE dx=-20 dy=0 dh=-20 dv=0 dx=0 dy=0 dh=0 dv=0
EndChar

StartChar: uni05B4
Encoding: 1460 1460 52
Width: 0
GlyphClass: 4
Flags: W
AnchorPoint: "+BBEENQQ3BEsEPARPBD0EPQQ+BDUA--10" 84 0 mark 0
AnchorPoint: "+BBEENQQ3BEsEPARPBD0EPQQ+BDUA--4" 84 0 mark 0
LayerCount: 2
Fore
SplineSet
83 -155 m 0,0,1
 46 -155 46 -155 46 -112 c 0,2,3
 46 -70 46 -70 83 -70 c 0,4,5
 100 -70 100 -70 110.5 -80.5 c 128,-1,6
 121 -91 121 -91 121 -112 c 0,7,8
 121 -134 121 -134 110.5 -144.5 c 128,-1,9
 100 -155 100 -155 83 -155 c 0,0,1
EndSplineSet
EndChar

StartChar: uni05B9
Encoding: 1465 1465 53
Width: 0
GlyphClass: 4
Flags: W
AnchorPoint: "+BBEENQQ3BEsEPARPBD0EPQQ+BDUA--8" 84 536 mark 0
AnchorPoint: "+BBEENQQ3BEsEPARPBD0EPQQ+BDUA--2" 84 536 mark 0
LayerCount: 2
Fore
SplineSet
83 670 m 256,0,1
 66 670 66 670 56 680 c 128,-1,2
 46 690 46 690 46 713 c 0,3,4
 46 755 46 755 83 755 c 0,5,6
 100 755 100 755 110.5 744.5 c 128,-1,7
 121 734 121 734 121 713 c 0,8,9
 121 691 121 691 110.5 680.5 c 128,-1,10
 100 670 100 670 83 670 c 256,0,1
EndSplineSet
EndChar

StartChar: uni05BA
Encoding: 1466 1466 54
Width: 0
GlyphClass: 4
Flags: W
AnchorPoint: "+BBEENQQ3BEsEPARPBD0EPQQ+BDUA--8" 84 536 mark 0
AnchorPoint: "+BBEENQQ3BEsEPARPBD0EPQQ+BDUA--2" 84 536 mark 0
LayerCount: 2
Fore
SplineSet
83 670 m 256,0,1
 66 670 66 670 56 680 c 128,-1,2
 46 690 46 690 46 713 c 0,3,4
 46 755 46 755 83 755 c 0,5,6
 100 755 100 755 110.5 744.5 c 128,-1,7
 121 734 121 734 121 713 c 0,8,9
 121 691 121 691 110.5 680.5 c 128,-1,10
 100 670 100 670 83 670 c 256,0,1
EndSplineSet
EndChar

StartChar: hyphen
Encoding: 45 45 55
Width: 310
Flags: W
LayerCount: 2
Fore
SplineSet
25 235 m 1,0,-1
 25 310 l 1,1,-1
 285 310 l 1,2,-1
 285 235 l 1,3,-1
 25 235 l 1,0,-1
EndSplineSet
EndChar

StartChar: uni2010
Encoding: 8208 8208 56
Width: 310
Flags: W
LayerCount: 2
Fore
SplineSet
25 235 m 1,0,-1
 25 310 l 1,1,-1
 285 310 l 1,2,-1
 285 235 l 1,3,-1
 25 235 l 1,0,-1
EndSplineSet
EndChar

StartChar: uni05AC
Encoding: 1452 1452 57
Width: 0
GlyphClass: 4
Flags: W
AnchorPoint: "+BBEENQQ3BEsEPARPBD0EPQQ+BDUA--9" 125 536 mark 0
AnchorPoint: "+BBEENQQ3BEsEPARPBD0EPQQ+BDUA--3" 125 536 mark 0
LayerCount: 2
Fore
SplineSet
47 660 m 1,0,-1
 50 709 l 1,1,-1
 150 709 l 1,2,-1
 150 804 l 1,3,-1
 200 807 l 1,4,-1
 200 660 l 1,5,-1
 47 660 l 1,0,-1
EndSplineSet
EndChar

StartChar: uniFB1E
Encoding: 64286 64286 58
Width: 0
GlyphClass: 4
Flags: W
AnchorPoint: "+BBEENQQ3BEsEPARPBD0EPQQ+BDUA--9" 155 536 mark 0
AnchorPoint: "+BBEENQQ3BEsEPARPBD0EPQQ+BDUA--3" 155 536 mark 0
LayerCount: 2
Fore
SplineSet
261 780 m 1,0,1
 261 731 261 731 233 699.5 c 128,-1,2
 205 668 205 668 155 668 c 0,3,4
 106 668 106 668 78 698 c 128,-1,5
 50 728 50 728 50 777 c 1,6,-1
 100 780 l 1,7,8
 100 756 100 756 114.5 738.5 c 128,-1,9
 129 721 129 721 155 721 c 0,10,11
 210 721 210 721 210 777 c 1,12,-1
 261 780 l 1,0,1
EndSplineSet
EndChar

StartChar: uni05DB
Encoding: 1499 1499 59
Width: 550
GlyphClass: 2
Flags: W
AnchorPoint: "+BBEENQQ3BEsEPARPBD0EPQQ+BDUA--4" 274 0 basechar 0
AnchorPoint: "+BBEENQQ3BEsEPARPBD0EPQQ+BDUA--3" 236 536 basechar 0
AnchorPoint: "+BBEENQQ3BEsEPARPBD0EPQQ+BDUA--2" 44 536 basechar 0
AnchorPoint: "+BBEENQQ3BEsEPARPBD0EPQQ+BDUA--1" 255 300 basechar 0
AnchorPoint: "+BBEENQQ3BEsEPARPBD0EPQQ+BDUA--0" 43 0 basechar 0
LayerCount: 2
Fore
SplineSet
49 0 m 1,0,-1
 76 109 l 1,1,-1
 296 109 l 2,2,3
 358 109 358 109 394.5 139 c 128,-1,4
 431 169 431 169 431 227 c 2,5,-1
 431 376 l 2,6,7
 431 415 431 415 414.5 438.5 c 128,-1,8
 398 462 398 462 374 472.5 c 128,-1,9
 350 483 350 483 325 483 c 2,10,-1
 107 483 l 2,11,12
 83 483 83 483 70.5 499.5 c 128,-1,13
 58 516 58 516 58 555 c 0,14,15
 58 572 58 572 61 591 c 128,-1,16
 64 610 64 610 72 647 c 1,17,-1
 99 647 l 1,18,-1
 99 644 l 2,19,20
 99 620 99 620 112.5 606 c 128,-1,21
 126 592 126 592 152 592 c 2,22,-1
 324 592 l 2,23,24
 398 592 398 592 441.5 549.5 c 128,-1,25
 485 507 485 507 485 444 c 2,26,-1
 485 192 l 2,27,28
 485 125 485 125 463.5 82.5 c 128,-1,29
 442 40 442 40 409.5 20 c 128,-1,30
 377 0 377 0 343 0 c 2,31,-1
 49 0 l 1,0,-1
EndSplineSet
PairPos2: "'kern' Horizontal Kerning in +BBgEMgRABDgEQgAA lookup 0 subtable" uni05E1 dx=-50 dy=0 dh=-50 dv=0 dx=0 dy=0 dh=0 dv=0
PairPos2: "'kern' Horizontal Kerning in +BBgEMgRABDgEQgAA lookup 0 subtable" uni05E7 dx=-30 dy=0 dh=-30 dv=0 dx=0 dy=0 dh=0 dv=0
PairPos2: "'kern' Horizontal Kerning in +BBgEMgRABDgEQgAA lookup 0 subtable" uni05E2 dx=-50 dy=0 dh=-50 dv=0 dx=0 dy=0 dh=0 dv=0
PairPos2: "'kern' Horizontal Kerning in +BBgEMgRABDgEQgAA lookup 0 subtable" uni05D0 dx=-20 dy=0 dh=-20 dv=0 dx=0 dy=0 dh=0 dv=0
EndChar

StartChar: uni05DC
Encoding: 1500 1500 62
Width: 503
GlyphClass: 2
Flags: W
AnchorPoint: "+BBEENQQ3BEsEPARPBD0EPQQ+BDUA--4" 214 0 basechar 0
AnchorPoint: "+BBEENQQ3BEsEPARPBD0EPQQ+BDUA--3" 252 536 basechar 0
AnchorPoint: "+BBEENQQ3BEsEPARPBD0EPQQ+BDUA--2" -57 536 basechar 0
AnchorPoint: "+BBEENQQ3BEsEPARPBD0EPQQ+BDUA--1" 188 325 basechar 0
AnchorPoint: "+BBEENQQ3BEsEPARPBD0EPQQ+BDUA--0" 215 0 basechar 0
LayerCount: 2
Fore
SplineSet
215 -7 m 0,0,1
 197 -7 197 -7 189.5 3.5 c 128,-1,2
 182 14 182 14 182 41 c 2,3,-1
 182 65 l 2,4,5
 182 89 182 89 191.5 107.5 c 128,-1,6
 201 126 201 126 223 150 c 2,7,-1
 370 313 l 2,8,9
 383 327 383 327 388 336.5 c 128,-1,10
 393 346 393 346 393 358 c 2,11,-1
 393 437 l 2,12,13
 393 483 393 483 347 483 c 2,14,-1
 84 483 l 2,15,16
 59 483 59 483 47 500 c 128,-1,17
 35 517 35 517 35 548 c 0,18,19
 35 565 35 565 40.5 591.5 c 128,-1,20
 46 618 46 618 54 647 c 128,-1,21
 62 676 62 676 70 702 c 128,-1,22
 78 728 78 728 82 743 c 0,23,24
 87 762 87 762 70 765 c 2,25,-1
 40 769 l 2,26,27
 21 771 21 771 16.5 783 c 128,-1,28
 12 795 12 795 12 810 c 0,29,30
 12 824 12 824 18.5 844.5 c 128,-1,31
 25 865 25 865 28 873 c 1,32,-1
 48 873 l 1,33,-1
 48 870 l 2,34,35
 48 842 48 842 70 839 c 2,36,-1
 105 834 l 2,37,38
 125 831 125 831 131 814 c 128,-1,39
 137 797 137 797 126 758 c 2,40,-1
 96 643 l 2,41,42
 83 592 83 592 135 592 c 2,43,-1
 360 592 l 2,44,45
 399 592 399 592 417.5 576.5 c 128,-1,46
 436 561 436 561 441.5 538.5 c 128,-1,47
 447 516 447 516 447 493 c 2,48,-1
 446 359 l 2,49,50
 446 340 446 340 439.5 321.5 c 128,-1,51
 433 303 433 303 413 281 c 2,52,-1
 271 125 l 2,53,54
 259 113 259 113 255 100 c 128,-1,55
 251 87 251 87 251 67 c 2,56,-1
 251 41 l 2,57,58
 251 -7 251 -7 215 -7 c 0,0,1
EndSplineSet
PairPos2: "'kern' Horizontal Kerning in +BBgEMgRABDgEQgAA lookup 0 subtable" uni05E8 dx=-30 dy=0 dh=-30 dv=0 dx=0 dy=0 dh=0 dv=0
PairPos2: "'kern' Horizontal Kerning in +BBgEMgRABDgEQgAA lookup 0 subtable" uni05DE dx=-40 dy=0 dh=-40 dv=0 dx=0 dy=0 dh=0 dv=0
PairPos2: "'kern' Horizontal Kerning in +BBgEMgRABDgEQgAA lookup 0 subtable" uni05DD dx=-40 dy=0 dh=-40 dv=0 dx=0 dy=0 dh=0 dv=0
PairPos2: "'kern' Horizontal Kerning in +BBgEMgRABDgEQgAA lookup 0 subtable" uni05D1 dx=-30 dy=0 dh=-30 dv=0 dx=0 dy=0 dh=0 dv=0
PairPos2: "'kern' Horizontal Kerning in +BBgEMgRABDgEQgAA lookup 0 subtable" uni05D0 dx=-30 dy=0 dh=-30 dv=0 dx=0 dy=0 dh=0 dv=0
EndChar

StartChar: uni05C5
Encoding: 1477 1477 64
Width: 0
GlyphClass: 4
Flags: W
AnchorPoint: "+BBEENQQ3BEsEPARPBD0EPQQ+BDUA--10" 84 0 mark 0
AnchorPoint: "+BBEENQQ3BEsEPARPBD0EPQQ+BDUA--4" 84 0 mark 0
LayerCount: 2
Fore
SplineSet
83 -155 m 0,0,1
 46 -155 46 -155 46 -112 c 0,2,3
 46 -70 46 -70 83 -70 c 0,4,5
 100 -70 100 -70 110.5 -80.5 c 128,-1,6
 121 -91 121 -91 121 -112 c 0,7,8
 121 -134 121 -134 110.5 -144.5 c 128,-1,9
 100 -155 100 -155 83 -155 c 0,0,1
EndSplineSet
EndChar

StartChar: uni05A4
Encoding: 1444 1444 65
Width: 0
GlyphClass: 4
Flags: W
AnchorPoint: "+BBEENQQ3BEsEPARPBD0EPQQ+BDUA--6" 167 0 mark 0
AnchorPoint: "+BBEENQQ3BEsEPARPBD0EPQQ+BDUA--0" 167 0 mark 0
LayerCount: 2
Fore
SplineSet
147 -264 m 1,0,-1
 50 -167 l 1,1,-1
 147 -70 l 1,2,-1
 189 -95 l 1,3,-1
 117 -167 l 1,4,-1
 189 -239 l 1,5,-1
 147 -264 l 1,0,-1
EndSplineSet
EndChar

StartChar: uni05BE
Encoding: 1470 1470 66
Width: 312
Flags: W
LayerCount: 2
Fore
SplineSet
30 483 m 1,0,-1
 30 592 l 1,1,-1
 272 592 l 1,2,-1
 272 483 l 1,3,-1
 30 483 l 1,0,-1
EndSplineSet
EndChar

StartChar: uni05AF
Encoding: 1455 1455 67
Width: 0
GlyphClass: 4
Flags: W
AnchorPoint: "+BBEENQQ3BEsEPARPBD0EPQQ+BDUA--9" 142 536 mark 0
AnchorPoint: "+BBEENQQ3BEsEPARPBD0EPQQ+BDUA--3" 142 536 mark 0
LayerCount: 2
Fore
SplineSet
142 660 m 256,0,1
 103 660 103 660 76.5 687 c 128,-1,2
 50 714 50 714 50 752 c 256,3,4
 50 790 50 790 77 817 c 128,-1,5
 104 844 104 844 142 844 c 256,6,7
 180 844 180 844 207 817 c 128,-1,8
 234 790 234 790 234 752 c 256,9,10
 234 714 234 714 207.5 687 c 128,-1,11
 181 660 181 660 142 660 c 256,0,1
142 703 m 256,12,13
 162 703 162 703 176.5 717.5 c 128,-1,14
 191 732 191 732 191 752 c 256,15,16
 191 772 191 772 176.5 786.5 c 128,-1,17
 162 801 162 801 142 801 c 0,18,19
 123 801 123 801 108 786.5 c 128,-1,20
 93 772 93 772 93 752 c 256,21,22
 93 732 93 732 107.5 717.5 c 128,-1,23
 122 703 122 703 142 703 c 256,12,13
EndSplineSet
EndChar

StartChar: uni05DE
Encoding: 1502 1502 68
Width: 629
GlyphClass: 2
Flags: W
AnchorPoint: "+BBEENQQ3BEsEPARPBD0EPQQ+BDUA--4" 329 0 basechar 0
AnchorPoint: "+BBEENQQ3BEsEPARPBD0EPQQ+BDUA--3" 346 536 basechar 0
AnchorPoint: "+BBEENQQ3BEsEPARPBD0EPQQ+BDUA--2" 50 536 basechar 0
AnchorPoint: "+BBEENQQ3BEsEPARPBD0EPQQ+BDUA--1" 346 300 basechar 0
AnchorPoint: "+BBEENQQ3BEsEPARPBD0EPQQ+BDUA--0" 95 0 basechar 0
LayerCount: 2
Fore
SplineSet
61 0 m 1,0,-1
 95 241 l 2,1,2
 106 316 106 316 127 360.5 c 128,-1,3
 148 405 148 405 163 432 c 0,4,5
 171 447 171 447 174 456 c 128,-1,6
 177 465 177 465 177 470 c 0,7,8
 177 483 177 483 151 483 c 2,9,-1
 94 483 l 2,10,11
 70 483 70 483 57.5 499.5 c 128,-1,12
 45 516 45 516 45 555 c 0,13,14
 45 572 45 572 48 588.5 c 128,-1,15
 51 605 51 605 59 647 c 1,16,-1
 86 647 l 1,17,-1
 86 644 l 2,18,19
 86 619 86 619 100.5 605.5 c 128,-1,20
 115 592 115 592 139 592 c 2,21,-1
 157 592 l 2,22,23
 192 592 192 592 205.5 581 c 128,-1,24
 219 570 219 570 219 541 c 2,25,-1
 219 499 l 1,26,-1
 222 498 l 1,27,-1
 314 598 l 1,28,-1
 321 598 l 2,29,30
 419 598 419 598 474 559.5 c 128,-1,31
 529 521 529 521 551.5 446.5 c 128,-1,32
 574 372 574 372 574 263 c 0,33,34
 574 239 574 239 573 217 c 128,-1,35
 572 195 572 195 568.5 167.5 c 128,-1,36
 565 140 565 140 559 100 c 128,-1,37
 553 60 553 60 543 0 c 1,38,-1
 233 0 l 1,39,-1
 249 109 l 1,40,-1
 465 109 l 2,41,42
 488 109 488 109 496 115 c 128,-1,43
 504 121 504 121 510 144 c 0,44,45
 515 161 515 161 517.5 183.5 c 128,-1,46
 520 206 520 206 520 239 c 0,47,48
 520 353 520 353 482.5 420 c 128,-1,49
 445 487 445 487 365 487 c 0,50,51
 320 487 320 487 283 467 c 128,-1,52
 246 447 246 447 218.5 413.5 c 128,-1,53
 191 380 191 380 174 340 c 128,-1,54
 157 300 157 300 151 260 c 2,55,-1
 115 0 l 1,56,-1
 61 0 l 1,0,-1
EndSplineSet
EndChar

StartChar: uni05A6
Encoding: 1446 1446 70
Width: 0
GlyphClass: 4
Flags: W
AnchorPoint: "+BBEENQQ3BEsEPARPBD0EPQQ+BDUA--6" 251 0 mark 0
AnchorPoint: "+BBEENQQ3BEsEPARPBD0EPQQ+BDUA--0" 251 0 mark 0
LayerCount: 2
Fore
SplineSet
242 -235 m 1,0,1
 283 -224 283 -224 295 -201 c 0,2,3
 305 -183 305 -183 305 -147 c 128,-1,4
 305 -111 305 -111 303 -83 c 1,5,-1
 352 -80 l 1,6,7
 356 -132 356 -132 354 -170 c 128,-1,8
 352 -208 352 -208 336 -231 c 0,9,10
 323 -250 323 -250 301 -264.5 c 128,-1,11
 279 -279 279 -279 245 -287 c 1,12,-1
 242 -235 l 1,0,1
110 -235 m 1,13,14
 151 -224 151 -224 163 -201 c 0,15,16
 173 -183 173 -183 173 -147 c 128,-1,17
 173 -111 173 -111 171 -83 c 1,18,-1
 220 -80 l 1,19,20
 224 -132 224 -132 222 -170 c 128,-1,21
 220 -208 220 -208 204 -231 c 0,22,23
 191 -250 191 -250 169 -264.5 c 128,-1,24
 147 -279 147 -279 113 -287 c 1,25,-1
 110 -235 l 1,13,14
EndSplineSet
EndChar

StartChar: uni05A5
Encoding: 1445 1445 71
Width: 0
GlyphClass: 4
Flags: W
AnchorPoint: "+BBEENQQ3BEsEPARPBD0EPQQ+BDUA--6" 200 0 mark 0
AnchorPoint: "+BBEENQQ3BEsEPARPBD0EPQQ+BDUA--0" 200 0 mark 0
LayerCount: 2
Fore
SplineSet
96 -238 m 1,0,1
 137 -227 137 -227 149 -204 c 0,2,3
 159 -186 159 -186 159 -151.5 c 128,-1,4
 159 -117 159 -117 157 -87 c 1,5,-1
 206 -84 l 1,6,7
 210 -135 210 -135 208 -173 c 128,-1,8
 206 -211 206 -211 190 -234 c 0,9,10
 177 -253 177 -253 152 -267.5 c 128,-1,11
 127 -282 127 -282 93 -290 c 1,12,-1
 96 -238 l 1,0,1
EndSplineSet
EndChar

StartChar: uni05A3
Encoding: 1443 1443 72
Width: 0
GlyphClass: 4
Flags: W
AnchorPoint: "+BBEENQQ3BEsEPARPBD0EPQQ+BDUA--6" 200 0 mark 0
AnchorPoint: "+BBEENQQ3BEsEPARPBD0EPQQ+BDUA--0" 200 0 mark 0
LayerCount: 2
Fore
SplineSet
47 -228 m 1,0,-1
 50 -179 l 1,1,-1
 150 -179 l 1,2,-1
 150 -84 l 1,3,-1
 200 -81 l 1,4,-1
 200 -228 l 1,5,-1
 47 -228 l 1,0,-1
EndSplineSet
EndChar

StartChar: uni05E0
Encoding: 1504 1504 74
Width: 367
GlyphClass: 2
Flags: W
AnchorPoint: "+BBEENQQ3BEsEPARPBD0EPQQ+BDUA--4" 160 0 basechar 0
AnchorPoint: "+BBEENQQ3BEsEPARPBD0EPQQ+BDUA--3" 197 536 basechar 0
AnchorPoint: "+BBEENQQ3BEsEPARPBD0EPQQ+BDUA--2" 72 536 basechar 0
AnchorPoint: "+BBEENQQ3BEsEPARPBD0EPQQ+BDUA--1" 130 300 basechar 0
AnchorPoint: "+BBEENQQ3BEsEPARPBD0EPQQ+BDUA--0" 7 0 basechar 0
LayerCount: 2
Fore
SplineSet
25 0 m 1,0,-1
 53 109 l 1,1,-1
 181 109 l 2,2,3
 222 109 222 109 235 125.5 c 128,-1,4
 248 142 248 142 248 179 c 2,5,-1
 248 393 l 2,6,7
 248 443 248 443 233 463 c 128,-1,8
 218 483 218 483 188 483 c 2,9,-1
 137 483 l 2,10,11
 114 483 114 483 101 499 c 128,-1,12
 88 515 88 515 88 552 c 0,13,14
 88 565 88 565 89 576 c 128,-1,15
 90 587 90 587 93.5 603 c 128,-1,16
 97 619 97 619 102 647 c 1,17,-1
 129 647 l 1,18,-1
 129 644 l 2,19,20
 129 619 129 619 143 605.5 c 128,-1,21
 157 592 157 592 182 592 c 2,22,-1
 214 592 l 2,23,24
 255 592 255 592 278.5 572.5 c 128,-1,25
 302 553 302 553 302 503 c 2,26,-1
 302 124 l 2,27,28
 302 59 302 59 278.5 29.5 c 128,-1,29
 255 0 255 0 195 0 c 2,30,-1
 25 0 l 1,0,-1
EndSplineSet
PairPos2: "'kern' Horizontal Kerning in +BBgEMgRABDgEQgAA lookup 0 subtable" uni05D9 dx=-30 dy=0 dh=-30 dv=0 dx=0 dy=0 dh=0 dv=0
PairPos2: "'kern' Horizontal Kerning in +BBgEMgRABDgEQgAA lookup 0 subtable" uni05D8 dx=-20 dy=0 dh=-20 dv=0 dx=0 dy=0 dh=0 dv=0
PairPos2: "'kern' Horizontal Kerning in +BBgEMgRABDgEQgAA lookup 0 subtable" uni05E9 dx=-20 dy=0 dh=-20 dv=0 dx=0 dy=0 dh=0 dv=0
PairPos2: "'kern' Horizontal Kerning in +BBgEMgRABDgEQgAA lookup 0 subtable" uni05E1 dx=-30 dy=0 dh=-30 dv=0 dx=0 dy=0 dh=0 dv=0
PairPos2: "'kern' Horizontal Kerning in +BBgEMgRABDgEQgAA lookup 0 subtable" uni05DE dx=-30 dy=0 dh=-30 dv=0 dx=0 dy=0 dh=0 dv=0
PairPos2: "'kern' Horizontal Kerning in +BBgEMgRABDgEQgAA lookup 0 subtable" uni05DC dx=-40 dy=0 dh=-40 dv=0 dx=0 dy=0 dh=0 dv=0
PairPos2: "'kern' Horizontal Kerning in +BBgEMgRABDgEQgAA lookup 0 subtable" uni05D7 dx=-30 dy=0 dh=-30 dv=0 dx=0 dy=0 dh=0 dv=0
PairPos2: "'kern' Horizontal Kerning in +BBgEMgRABDgEQgAA lookup 0 subtable" uni05E5 dx=-40 dy=0 dh=-40 dv=0 dx=0 dy=0 dh=0 dv=0
PairPos2: "'kern' Horizontal Kerning in +BBgEMgRABDgEQgAA lookup 0 subtable" uni05E2 dx=-50 dy=0 dh=-50 dv=0 dx=0 dy=0 dh=0 dv=0
PairPos2: "'kern' Horizontal Kerning in +BBgEMgRABDgEQgAA lookup 0 subtable" uni05D0 dx=-20 dy=0 dh=-20 dv=0 dx=0 dy=0 dh=0 dv=0
EndChar

StartChar: uni05C6
Encoding: 1478 1478 76
Width: 367
Flags: W
LayerCount: 2
Fore
SplineSet
172 0 m 2,0,1
 112 0 112 0 88.5 29.5 c 128,-1,2
 65 59 65 59 65 124 c 2,3,-1
 65 503 l 2,4,5
 65 553 65 553 89 572.5 c 128,-1,6
 113 592 113 592 153 592 c 2,7,-1
 185 592 l 2,8,9
 209 592 209 592 223.5 604 c 128,-1,10
 238 616 238 616 238 640 c 2,11,-1
 238 647 l 1,12,-1
 265 647 l 1,13,14
 271 619 271 619 274 603 c 128,-1,15
 277 587 277 587 278 576 c 128,-1,16
 279 565 279 565 279 552 c 0,17,18
 279 515 279 515 266 499 c 128,-1,19
 253 483 253 483 230 483 c 2,20,-1
 179 483 l 2,21,22
 149 483 149 483 134 463 c 128,-1,23
 119 443 119 443 119 393 c 2,24,-1
 119 179 l 2,25,26
 119 142 119 142 132.5 125.5 c 128,-1,27
 146 109 146 109 186 109 c 2,28,-1
 314 109 l 1,29,-1
 342 0 l 1,30,-1
 172 0 l 2,0,1
EndSplineSet
EndChar

StartChar: uni05AB
Encoding: 1451 1451 77
Width: 0
GlyphClass: 4
Flags: W
AnchorPoint: "+BBEENQQ3BEsEPARPBD0EPQQ+BDUA--9" 125 536 mark 0
AnchorPoint: "+BBEENQQ3BEsEPARPBD0EPQQ+BDUA--3" 125 536 mark 0
LayerCount: 2
Fore
SplineSet
147 648 m 1,0,-1
 50 745 l 1,1,-1
 147 842 l 1,2,-1
 189 817 l 1,3,-1
 117 745 l 1,4,-1
 189 673 l 1,5,-1
 147 648 l 1,0,-1
EndSplineSet
EndChar

StartChar: uni05C0
Encoding: 1472 1472 78
Width: 300
Flags: W
LayerCount: 2
Fore
SplineSet
120 673 m 1,0,-1
 180 673 l 1,1,-1
 180 -81 l 1,2,-1
 120 -81 l 1,3,-1
 120 673 l 1,0,-1
EndSplineSet
EndChar

StartChar: uni0599
Encoding: 1433 1433 79
Width: 0
GlyphClass: 4
Flags: W
AnchorPoint: "+BBEENQQ3BEsEPARPBD0EPQQ+BDUA--8" 200 536 mark 0
AnchorPoint: "+BBEENQQ3BEsEPARPBD0EPQQ+BDUA--2" 200 536 mark 0
LayerCount: 2
Fore
SplineSet
88 811 m 1,0,-1
 92 863 l 1,1,2
 124 856 124 856 147.5 841 c 128,-1,3
 171 826 171 826 184 807 c 0,4,5
 200 785 200 785 202 748 c 128,-1,6
 204 711 204 711 200 660 c 1,7,-1
 151 657 l 1,8,9
 153 687 153 687 153 723 c 128,-1,10
 153 759 153 759 143 777 c 0,11,12
 131 800 131 800 88 811 c 1,0,-1
EndSplineSet
EndChar

StartChar: uni05B7
Encoding: 1463 1463 80
Width: 0
GlyphClass: 4
Flags: W
AnchorPoint: "+BBEENQQ3BEsEPARPBD0EPQQ+BDUA--10" 139 0 mark 0
AnchorPoint: "+BBEENQQ3BEsEPARPBD0EPQQ+BDUA--4" 139 0 mark 0
LayerCount: 2
Fore
SplineSet
58 -137 m 1,0,-1
 61 -84 l 1,1,-1
 220 -84 l 1,2,-1
 217 -137 l 1,3,-1
 58 -137 l 1,0,-1
EndSplineSet
EndChar

StartChar: uni05A1
Encoding: 1441 1441 81
Width: 0
GlyphClass: 4
Flags: W
AnchorPoint: "+BBEENQQ3BEsEPARPBD0EPQQ+BDUA--9" 126 536 mark 0
AnchorPoint: "+BBEENQQ3BEsEPARPBD0EPQQ+BDUA--3" 126 536 mark 0
LayerCount: 2
Fore
SplineSet
40 657 m 1,0,-1
 40 830 l 1,1,-1
 92 833 l 1,2,-1
 92 762 l 1,3,4
 99 755 99 755 115 755 c 0,5,6
 139 755 139 755 149 766.5 c 128,-1,7
 159 778 159 778 159 807 c 2,8,-1
 159 830 l 1,9,-1
 212 833 l 1,10,-1
 212 807 l 2,11,12
 212 761 212 761 189.5 734 c 128,-1,13
 167 707 167 707 121 707 c 0,14,15
 104 707 104 707 92 713 c 1,16,-1
 92 660 l 1,17,-1
 40 657 l 1,0,-1
EndSplineSet
EndChar

StartChar: uni05E4
Encoding: 1508 1508 82
Width: 570
GlyphClass: 2
Flags: W
AnchorPoint: "+BBEENQQ3BEsEPARPBD0EPQQ+BDUA--4" 265 0 basechar 0
AnchorPoint: "+BBEENQQ3BEsEPARPBD0EPQQ+BDUA--3" 266 536 basechar 0
AnchorPoint: "+BBEENQQ3BEsEPARPBD0EPQQ+BDUA--2" 0 536 basechar 0
AnchorPoint: "+BBEENQQ3BEsEPARPBD0EPQQ+BDUA--1" 358 300 basechar 0
AnchorPoint: "+BBEENQQ3BEsEPARPBD0EPQQ+BDUA--0" 8 0 basechar 0
LayerCount: 2
Fore
SplineSet
49 0 m 1,0,-1
 76 109 l 1,1,-1
 316 109 l 2,2,3
 378 109 378 109 414.5 139 c 128,-1,4
 451 169 451 169 451 227 c 2,5,-1
 451 376 l 2,6,7
 451 416 451 416 434.5 439 c 128,-1,8
 418 462 418 462 394 472.5 c 128,-1,9
 370 483 370 483 345 483 c 2,10,-1
 180 483 l 1,11,12
 168 459 168 459 154 425.5 c 128,-1,13
 140 392 140 392 140 347 c 2,14,-1
 140 341 l 1,15,16
 150 347 150 347 164 354 c 128,-1,17
 178 361 178 361 199 361 c 0,18,19
 223 361 223 361 244 347.5 c 128,-1,20
 265 334 265 334 265 303 c 0,21,22
 265 281 265 281 255.5 265.5 c 128,-1,23
 246 250 246 250 241 242 c 1,24,25
 227 257 227 257 212.5 266 c 128,-1,26
 198 275 198 275 175 275 c 0,27,28
 156 275 156 275 140.5 269 c 128,-1,29
 125 263 125 263 102 252 c 1,30,-1
 75 252 l 1,31,-1
 75 265 l 2,32,33
 75 329 75 329 93.5 388 c 128,-1,34
 112 447 112 447 135 481 c 1,35,-1
 135 483 l 1,36,-1
 107 483 l 2,37,38
 83 483 83 483 70.5 499 c 128,-1,39
 58 515 58 515 58 555 c 0,40,41
 58 572 58 572 61 588.5 c 128,-1,42
 64 605 64 605 72 647 c 1,43,-1
 99 647 l 1,44,-1
 99 645 l 2,45,46
 99 619 99 619 114.5 605.5 c 128,-1,47
 130 592 130 592 150 592 c 2,48,-1
 344 592 l 2,49,50
 418 592 418 592 461.5 549.5 c 128,-1,51
 505 507 505 507 505 444 c 2,52,-1
 505 192 l 2,53,54
 505 125 505 125 483.5 82.5 c 128,-1,55
 462 40 462 40 429.5 20 c 128,-1,56
 397 0 397 0 363 0 c 2,57,-1
 49 0 l 1,0,-1
EndSplineSet
PairPos2: "'kern' Horizontal Kerning in +BBgEMgRABDgEQgAA lookup 0 subtable" uni05DC dx=-10 dy=0 dh=-10 dv=0 dx=0 dy=0 dh=0 dv=0
EndChar

StartChar: uni05A8
Encoding: 1448 1448 85
Width: 0
GlyphClass: 4
Flags: W
AnchorPoint: "+BBEENQQ3BEsEPARPBD0EPQQ+BDUA--8" 175 536 mark 0
AnchorPoint: "+BBEENQQ3BEsEPARPBD0EPQQ+BDUA--2" 175 536 mark 0
LayerCount: 2
Fore
SplineSet
88 811 m 1,0,-1
 92 863 l 1,1,2
 124 856 124 856 147.5 841 c 128,-1,3
 171 826 171 826 184 807 c 0,4,5
 200 785 200 785 202 748 c 128,-1,6
 204 711 204 711 200 660 c 1,7,-1
 151 657 l 1,8,9
 153 687 153 687 153 723 c 128,-1,10
 153 759 153 759 143 777 c 0,11,12
 131 800 131 800 88 811 c 1,0,-1
EndSplineSet
EndChar

StartChar: uni05B8
Encoding: 1464 1464 86
Width: 0
GlyphClass: 4
Flags: W
AnchorPoint: "+BBEENQQ3BEsEPARPBD0EPQQ+BDUA--10" 139 0 mark 0
AnchorPoint: "+BBEENQQ3BEsEPARPBD0EPQQ+BDUA--4" 139 0 mark 0
LayerCount: 2
Fore
SplineSet
112 -231 m 1,0,-1
 119 -137 l 1,1,-1
 58 -137 l 1,2,-1
 61 -84 l 1,3,-1
 220 -84 l 1,4,-1
 217 -137 l 1,5,-1
 160 -137 l 1,6,-1
 166 -231 l 1,7,-1
 112 -231 l 1,0,-1
EndSplineSet
EndChar

StartChar: uni05C7
Encoding: 1479 1479 87
Width: 0
GlyphClass: 4
Flags: W
AnchorPoint: "+BBEENQQ3BEsEPARPBD0EPQQ+BDUA--10" 119 0 mark 0
AnchorPoint: "+BBEENQQ3BEsEPARPBD0EPQQ+BDUA--4" 119 0 mark 0
LayerCount: 2
Fore
SplineSet
92 -208 m 1,0,-1
 99 -137 l 1,1,-1
 41 -137 l 1,2,-1
 44 -84 l 1,3,-1
 197 -84 l 1,4,-1
 194 -137 l 1,5,-1
 140 -137 l 1,6,-1
 146 -208 l 1,7,-1
 92 -208 l 1,0,-1
EndSplineSet
EndChar

StartChar: uni059F
Encoding: 1439 1439 88
Width: 0
GlyphClass: 4
Flags: W
AnchorPoint: "+BBEENQQ3BEsEPARPBD0EPQQ+BDUA--9" 277 536 mark 0
AnchorPoint: "+BBEENQQ3BEsEPARPBD0EPQQ+BDUA--3" 277 536 mark 0
LayerCount: 2
Fore
SplineSet
326 660 m 1,0,-1
 290 696 l 1,1,-1
 329 735 l 1,2,3
 316 756 316 756 316 781 c 0,4,5
 316 820 316 820 343.5 847 c 128,-1,6
 371 874 371 874 410 874 c 256,7,8
 449 874 449 874 476.5 847.5 c 128,-1,9
 504 821 504 821 504 781 c 0,10,11
 504 742 504 742 477 715 c 128,-1,12
 450 688 450 688 410 688 c 0,13,14
 384 688 384 688 364 698 c 1,15,-1
 326 660 l 1,0,-1
228 660 m 1,16,-1
 190 698 l 1,17,18
 170 688 170 688 144 688 c 0,19,20
 104 688 104 688 77 715 c 128,-1,21
 50 742 50 742 50 781 c 256,22,23
 50 820 50 820 77.5 847 c 128,-1,24
 105 874 105 874 144 874 c 256,25,26
 183 874 183 874 210.5 847 c 128,-1,27
 238 820 238 820 238 781 c 0,28,29
 238 756 238 756 225 735 c 1,30,-1
 264 696 l 1,31,-1
 228 660 l 1,16,-1
145 734 m 256,32,33
 164 734 164 734 177.5 748 c 128,-1,34
 191 762 191 762 191 781 c 0,35,36
 191 801 191 801 177 814.5 c 128,-1,37
 163 828 163 828 145 828 c 0,38,39
 126 828 126 828 111.5 814 c 128,-1,40
 97 800 97 800 97 781 c 256,41,42
 97 762 97 762 111.5 748 c 128,-1,43
 126 734 126 734 145 734 c 256,32,33
409 734 m 0,44,45
 429 734 429 734 443 748 c 128,-1,46
 457 762 457 762 457 781 c 256,47,48
 457 800 457 800 442.5 814 c 128,-1,49
 428 828 428 828 409 828 c 0,50,51
 391 828 391 828 377 814.5 c 128,-1,52
 363 801 363 801 363 781 c 0,53,54
 363 762 363 762 376.5 748 c 128,-1,55
 390 734 390 734 409 734 c 0,44,45
EndSplineSet
EndChar

StartChar: uni05E7
Encoding: 1511 1511 89
Width: 569
GlyphClass: 2
Flags: W
AnchorPoint: "+BBEENQQ3BEsEPARPBD0EPQQ+BDUA--4" 320 0 basechar 0
AnchorPoint: "+BBEENQQ3BEsEPARPBD0EPQQ+BDUA--3" 304 536 basechar 0
AnchorPoint: "+BBEENQQ3BEsEPARPBD0EPQQ+BDUA--2" 35 536 basechar 0
AnchorPoint: "+BBEENQQ3BEsEPARPBD0EPQQ+BDUA--1" 290 300 basechar 0
AnchorPoint: "+BBEENQQ3BEsEPARPBD0EPQQ+BDUA--0" 13 0 basechar 0
LayerCount: 2
Fore
SplineSet
316 -7 m 0,0,1
 282 -7 282 -7 282 24 c 2,2,-1
 282 56 l 2,3,4
 282 91 282 91 288.5 110.5 c 128,-1,5
 295 130 295 130 315 149 c 2,6,-1
 422 247 l 2,7,8
 436 260 436 260 444.5 269.5 c 128,-1,9
 453 279 453 279 456.5 294.5 c 128,-1,10
 460 310 460 310 460 338 c 2,11,-1
 460 437 l 2,12,13
 460 483 460 483 408 483 c 2,14,-1
 124 483 l 2,15,16
 100 483 100 483 87.5 499 c 128,-1,17
 75 515 75 515 75 555 c 0,18,19
 75 572 75 572 78 588.5 c 128,-1,20
 81 605 81 605 89 647 c 1,21,-1
 116 647 l 1,22,-1
 116 644 l 2,23,24
 116 619 116 619 131.5 605.5 c 128,-1,25
 147 592 147 592 167 592 c 2,26,-1
 413 592 l 2,27,28
 514 592 514 592 514 488 c 2,29,-1
 514 347 l 2,30,31
 514 311 514 311 510 288 c 128,-1,32
 506 265 506 265 496.5 249.5 c 128,-1,33
 487 234 487 234 469 217 c 2,34,-1
 371 126 l 2,35,36
 357 113 357 113 354 96 c 128,-1,37
 351 79 351 79 351 56 c 2,38,-1
 351 24 l 2,39,40
 351 -7 351 -7 316 -7 c 0,0,1
86 -240 m 1,41,-1
 86 273 l 2,42,43
 86 306 86 306 93 322.5 c 128,-1,44
 100 339 100 339 116 346 c 2,45,-1
 135 354 l 1,46,-1
 141 347 l 1,47,-1
 155 -204 l 1,48,49
 133 -226 133 -226 101 -240 c 1,50,-1
 86 -240 l 1,41,-1
EndSplineSet
PairPos2: "'kern' Horizontal Kerning in +BBgEMgRABDgEQgAA lookup 0 subtable" uni05E9 dx=-30 dy=0 dh=-30 dv=0 dx=0 dy=0 dh=0 dv=0
PairPos2: "'kern' Horizontal Kerning in +BBgEMgRABDgEQgAA lookup 0 subtable" uni05DC dx=-10 dy=0 dh=-10 dv=0 dx=0 dy=0 dh=0 dv=0
EndChar

StartChar: uni05BB
Encoding: 1467 1467 91
Width: 0
GlyphClass: 4
Flags: W
AnchorPoint: "+BBEENQQ3BEsEPARPBD0EPQQ+BDUA--10" 165 0 mark 0
AnchorPoint: "+BBEENQQ3BEsEPARPBD0EPQQ+BDUA--4" 165 0 mark 0
LayerCount: 2
Fore
SplineSet
72 -155 m 0,0,1
 56 -155 56 -155 45.5 -144.5 c 128,-1,2
 35 -134 35 -134 35 -112 c 0,3,4
 35 -91 35 -91 45.5 -80.5 c 128,-1,5
 56 -70 56 -70 72 -70 c 0,6,7
 89 -70 89 -70 100 -80.5 c 128,-1,8
 111 -91 111 -91 111 -112 c 0,9,10
 111 -134 111 -134 100 -144.5 c 128,-1,11
 89 -155 89 -155 72 -155 c 0,0,1
164 -216 m 256,12,13
 147 -216 147 -216 136.5 -205.5 c 128,-1,14
 126 -195 126 -195 126 -173 c 0,15,16
 126 -152 126 -152 136.5 -141.5 c 128,-1,17
 147 -131 147 -131 164 -131 c 256,18,19
 181 -131 181 -131 191.5 -141.5 c 128,-1,20
 202 -152 202 -152 202 -173 c 0,21,22
 202 -195 202 -195 191.5 -205.5 c 128,-1,23
 181 -216 181 -216 164 -216 c 256,12,13
255 -276 m 0,24,25
 239 -276 239 -276 228.5 -265.5 c 128,-1,26
 218 -255 218 -255 218 -233 c 256,27,28
 218 -211 218 -211 228.5 -201 c 128,-1,29
 239 -191 239 -191 255 -191 c 0,30,31
 272 -191 272 -191 283 -201 c 128,-1,32
 294 -211 294 -211 294 -233 c 256,33,34
 294 -255 294 -255 283 -265.5 c 128,-1,35
 272 -276 272 -276 255 -276 c 0,24,25
EndSplineSet
EndChar

StartChar: uni05BF
Encoding: 1471 1471 92
Width: 0
GlyphClass: 4
Flags: W
AnchorPoint: "+BBEENQQ3BEsEPARPBD0EPQQ+BDUA--9" 149 536 mark 0
AnchorPoint: "+BBEENQQ3BEsEPARPBD0EPQQ+BDUA--3" 149 536 mark 0
LayerCount: 2
Fore
SplineSet
57 674 m 1,0,-1
 60 727 l 1,1,-1
 241 727 l 1,2,-1
 238 674 l 1,3,-1
 57 674 l 1,0,-1
EndSplineSet
EndChar

StartChar: uni05E8
Encoding: 1512 1512 93
Width: 484
GlyphClass: 2
Flags: W
AnchorPoint: "+BBEENQQ3BEsEPARPBD0EPQQ+BDUA--4" 391 0 basechar 0
AnchorPoint: "+BBEENQQ3BEsEPARPBD0EPQQ+BDUA--3" 195 536 basechar 0
AnchorPoint: "+BBEENQQ3BEsEPARPBD0EPQQ+BDUA--2" 0 536 basechar 0
AnchorPoint: "+BBEENQQ3BEsEPARPBD0EPQQ+BDUA--1" 181 300 basechar 0
AnchorPoint: "+BBEENQQ3BEsEPARPBD0EPQQ+BDUA--0" 194 0 basechar 0
LayerCount: 2
Fore
SplineSet
350 -7 m 1,0,-1
 350 417 l 2,1,2
 350 444 350 444 337 463.5 c 128,-1,3
 324 483 324 483 280 483 c 2,4,-1
 61 483 l 2,5,6
 37 483 37 483 24.5 499 c 128,-1,7
 12 515 12 515 12 555 c 0,8,9
 12 572 12 572 15 588.5 c 128,-1,10
 18 605 18 605 26 647 c 1,11,-1
 53 647 l 1,12,-1
 53 644 l 2,13,14
 53 619 53 619 68.5 605.5 c 128,-1,15
 84 592 84 592 104 592 c 2,16,-1
 281 592 l 2,17,18
 316 592 316 592 343.5 580 c 128,-1,19
 371 568 371 568 388 538 c 128,-1,20
 405 508 405 508 406 454 c 2,21,-1
 419 29 l 1,22,23
 397 7 397 7 365 -7 c 1,24,-1
 350 -7 l 1,0,-1
EndSplineSet
PairPos2: "'kern' Horizontal Kerning in +BBgEMgRABDgEQgAA lookup 0 subtable" uni05EA dx=-20 dy=0 dh=-20 dv=0 dx=0 dy=0 dh=0 dv=0
PairPos2: "'kern' Horizontal Kerning in +BBgEMgRABDgEQgAA lookup 0 subtable" uni05DE dx=-20 dy=0 dh=-20 dv=0 dx=0 dy=0 dh=0 dv=0
PairPos2: "'kern' Horizontal Kerning in +BBgEMgRABDgEQgAA lookup 0 subtable" uni05DC dx=-30 dy=0 dh=-30 dv=0 dx=0 dy=0 dh=0 dv=0
PairPos2: "'kern' Horizontal Kerning in +BBgEMgRABDgEQgAA lookup 0 subtable" uni05D0 dx=-20 dy=0 dh=-20 dv=0 dx=0 dy=0 dh=0 dv=0
EndChar

StartChar: uni0597
Encoding: 1431 1431 95
Width: 0
GlyphClass: 4
Flags: W
AnchorPoint: "+BBEENQQ3BEsEPARPBD0EPQQ+BDUA--8" 155 536 mark 0
AnchorPoint: "+BBEENQQ3BEsEPARPBD0EPQQ+BDUA--2" 155 536 mark 0
LayerCount: 2
Fore
SplineSet
120 640 m 1,0,-1
 41 727 l 1,1,-1
 120 815 l 1,2,-1
 199 727 l 1,3,-1
 120 640 l 1,0,-1
EndSplineSet
EndChar

StartChar: uni05E1
Encoding: 1505 1505 96
Width: 583
GlyphClass: 2
Flags: W
AnchorPoint: "+BBEENQQ3BEsEPARPBD0EPQQ+BDUA--4" 285 0 basechar 0
AnchorPoint: "+BBEENQQ3BEsEPARPBD0EPQQ+BDUA--3" 282 536 basechar 0
AnchorPoint: "+BBEENQQ3BEsEPARPBD0EPQQ+BDUA--2" 41 536 basechar 0
AnchorPoint: "+BBEENQQ3BEsEPARPBD0EPQQ+BDUA--1" 285 300 basechar 0
AnchorPoint: "+BBEENQQ3BEsEPARPBD0EPQQ+BDUA--0" 79 0 basechar 0
LayerCount: 2
Fore
SplineSet
282 -9 m 0,0,1
 198 -9 198 -9 148.5 28.5 c 128,-1,2
 99 66 99 66 77 129 c 128,-1,3
 55 192 55 192 55 266 c 0,4,5
 55 331 55 331 76.5 384 c 128,-1,6
 98 437 98 437 120 481 c 1,7,-1
 120 483 l 1,8,-1
 104 483 l 2,9,10
 88 483 88 483 71.5 498.5 c 128,-1,11
 55 514 55 514 55 557 c 0,12,13
 55 571 55 571 58 588 c 128,-1,14
 61 605 61 605 69 647 c 1,15,-1
 96 647 l 1,16,-1
 96 642 l 2,17,18
 96 617 96 617 110 604.5 c 128,-1,19
 124 592 124 592 148 592 c 2,20,-1
 367 592 l 2,21,22
 429 592 429 592 461.5 563.5 c 128,-1,23
 494 535 494 535 511 477 c 0,24,25
 523 437 523 437 525.5 401.5 c 128,-1,26
 528 366 528 366 528 346 c 0,27,28
 528 303 528 303 523 254 c 128,-1,29
 518 205 518 205 504 158.5 c 128,-1,30
 490 112 490 112 462.5 74 c 128,-1,31
 435 36 435 36 391 13.5 c 128,-1,32
 347 -9 347 -9 282 -9 c 0,0,1
109 285 m 0,33,34
 109 191 109 191 153 145.5 c 128,-1,35
 197 100 197 100 285 100 c 0,36,37
 476 100 476 100 476 308 c 0,38,39
 476 353 476 353 465.5 393 c 128,-1,40
 455 433 455 433 427.5 458 c 128,-1,41
 400 483 400 483 350 483 c 2,42,-1
 154 483 l 1,43,44
 148 469 148 469 137.5 441.5 c 128,-1,45
 127 414 127 414 118 374.5 c 128,-1,46
 109 335 109 335 109 285 c 0,33,34
EndSplineSet
PairPos2: "'kern' Horizontal Kerning in +BBgEMgRABDgEQgAA lookup 0 subtable" uni05E8 dx=-20 dy=0 dh=-20 dv=0 dx=0 dy=0 dh=0 dv=0
PairPos2: "'kern' Horizontal Kerning in +BBgEMgRABDgEQgAA lookup 0 subtable" uni05E5 dx=-10 dy=0 dh=-10 dv=0 dx=0 dy=0 dh=0 dv=0
PairPos2: "'kern' Horizontal Kerning in +BBgEMgRABDgEQgAA lookup 0 subtable" uni05D0 dx=-20 dy=0 dh=-20 dv=0 dx=0 dy=0 dh=0 dv=0
EndChar

StartChar: uni05B6
Encoding: 1462 1462 98
Width: 0
GlyphClass: 4
Flags: W
AnchorPoint: "+BBEENQQ3BEsEPARPBD0EPQQ+BDUA--10" 145 0 mark 0
AnchorPoint: "+BBEENQQ3BEsEPARPBD0EPQQ+BDUA--4" 145 0 mark 0
LayerCount: 2
Fore
SplineSet
213 -155 m 0,0,1
 176 -155 176 -155 176 -112 c 0,2,3
 176 -70 176 -70 213 -70 c 0,4,5
 230 -70 230 -70 240.5 -80.5 c 128,-1,6
 251 -91 251 -91 251 -112 c 0,7,8
 251 -134 251 -134 240.5 -144.5 c 128,-1,9
 230 -155 230 -155 213 -155 c 0,0,1
75 -155 m 0,10,11
 38 -155 38 -155 38 -112 c 0,12,13
 38 -70 38 -70 75 -70 c 0,14,15
 92 -70 92 -70 102.5 -80.5 c 128,-1,16
 113 -91 113 -91 113 -112 c 0,17,18
 113 -134 113 -134 102.5 -144.5 c 128,-1,19
 92 -155 92 -155 75 -155 c 0,10,11
144 -276 m 256,20,21
 127 -276 127 -276 116.5 -265.5 c 128,-1,22
 106 -255 106 -255 106 -233 c 256,23,24
 106 -211 106 -211 116.5 -201 c 128,-1,25
 127 -191 127 -191 144 -191 c 256,26,27
 161 -191 161 -191 171.5 -201 c 128,-1,28
 182 -211 182 -211 182 -233 c 256,29,30
 182 -255 182 -255 171.5 -265.5 c 128,-1,31
 161 -276 161 -276 144 -276 c 256,20,21
EndSplineSet
EndChar

StartChar: uni0592
Encoding: 1426 1426 99
Width: 0
GlyphClass: 4
Flags: W
AnchorPoint: "+BBEENQQ3BEsEPARPBD0EPQQ+BDUA--8" 206 536 mark 0
AnchorPoint: "+BBEENQQ3BEsEPARPBD0EPQQ+BDUA--2" 206 536 mark 0
LayerCount: 2
Fore
SplineSet
144 767 m 256,0,1
 127 767 127 767 116.5 777.5 c 128,-1,2
 106 788 106 788 106 809 c 0,3,4
 106 832 106 832 116.5 842 c 128,-1,5
 127 852 127 852 144 852 c 256,6,7
 161 852 161 852 171.5 841.5 c 128,-1,8
 182 831 182 831 182 809 c 0,9,10
 182 788 182 788 171.5 777.5 c 128,-1,11
 161 767 161 767 144 767 c 256,0,1
75 646 m 0,12,13
 38 646 38 646 38 688 c 0,14,15
 38 711 38 711 48 721 c 128,-1,16
 58 731 58 731 75 731 c 256,17,18
 92 731 92 731 102.5 721 c 128,-1,19
 113 711 113 711 113 688 c 0,20,21
 113 667 113 667 102.5 656.5 c 128,-1,22
 92 646 92 646 75 646 c 0,12,13
213 646 m 0,23,24
 176 646 176 646 176 688 c 0,25,26
 176 711 176 711 186 721 c 128,-1,27
 196 731 196 731 213 731 c 256,28,29
 230 731 230 731 240.5 721 c 128,-1,30
 251 711 251 711 251 688 c 0,31,32
 251 667 251 667 240.5 656.5 c 128,-1,33
 230 646 230 646 213 646 c 0,23,24
EndSplineSet
EndChar

StartChar: uni0593
Encoding: 1427 1427 100
Width: 0
GlyphClass: 4
Flags: W
AnchorPoint: "+BBEENQQ3BEsEPARPBD0EPQQ+BDUA--9" 122 536 mark 0
AnchorPoint: "+BBEENQQ3BEsEPARPBD0EPQQ+BDUA--3" 122 536 mark 0
LayerCount: 2
Fore
SplineSet
41 642 m 1,0,-1
 127 689 l 1,1,-1
 41 737 l 1,2,-1
 127 784 l 1,3,-1
 41 832 l 1,4,-1
 127 879 l 1,5,-1
 203 879 l 1,6,-1
 117 832 l 1,7,-1
 203 784 l 1,8,-1
 117 737 l 1,9,-1
 203 689 l 1,10,-1
 106 642 l 1,11,-1
 41 642 l 1,0,-1
EndSplineSet
EndChar

StartChar: uni05B0
Encoding: 1456 1456 101
Width: 0
GlyphClass: 4
Flags: W
AnchorPoint: "+BBEENQQ3BEsEPARPBD0EPQQ+BDUA--10" 86 0 mark 0
AnchorPoint: "+BBEENQQ3BEsEPARPBD0EPQQ+BDUA--4" 86 0 mark 0
LayerCount: 2
Fore
SplineSet
48 -112 m 0,0,1
 48 -70 48 -70 85 -70 c 0,2,3
 102 -70 102 -70 112.5 -80.5 c 128,-1,4
 123 -91 123 -91 123 -112 c 0,5,6
 123 -134 123 -134 112.5 -144.5 c 128,-1,7
 102 -155 102 -155 85 -155 c 0,8,9
 48 -155 48 -155 48 -112 c 0,0,1
46 -233 m 256,10,11
 46 -211 46 -211 56.5 -201 c 128,-1,12
 67 -191 67 -191 84 -191 c 256,13,14
 101 -191 101 -191 111.5 -201 c 128,-1,15
 122 -211 122 -211 122 -233 c 256,16,17
 122 -255 122 -255 111.5 -265.5 c 128,-1,18
 101 -276 101 -276 84 -276 c 256,19,20
 67 -276 67 -276 56.5 -265.5 c 128,-1,21
 46 -255 46 -255 46 -233 c 256,10,11
EndSplineSet
EndChar

StartChar: uni05E9
Encoding: 1513 1513 102
Width: 727
GlyphClass: 2
Flags: W
AnchorPoint: "+BBEENQQ3BEsEPARPBD0EPQQ+BDUA--5" 628 536 basechar 0
AnchorPoint: "+BBEENQQ3BEsEPARPBD0EPQQ+BDUA--4" 317 0 basechar 0
AnchorPoint: "+BBEENQQ3BEsEPARPBD0EPQQ+BDUA--3" 163 536 basechar 0
AnchorPoint: "+BBEENQQ3BEsEPARPBD0EPQQ+BDUA--2" 4 536 basechar 0
AnchorPoint: "+BBEENQQ3BEsEPARPBD0EPQQ+BDUA--1" 489 312 basechar 0
AnchorPoint: "+BBEENQQ3BEsEPARPBD0EPQQ+BDUA--0" 78 0 basechar 0
LayerCount: 2
Fore
SplineSet
117 0 m 1,0,1
 100 101 100 101 90.5 176 c 128,-1,2
 81 251 81 251 81 287 c 0,3,4
 81 331 81 331 93 386.5 c 128,-1,5
 105 442 105 442 119 488 c 1,6,-1
 100 491 l 2,7,8
 75 495 75 495 62.5 506 c 128,-1,9
 50 517 50 517 50 549 c 0,10,11
 50 568 50 568 55.5 590.5 c 128,-1,12
 61 613 61 613 74 647 c 1,13,-1
 101 647 l 1,14,-1
 101 644 l 2,15,16
 101 620 101 620 111.5 609.5 c 128,-1,17
 122 599 122 599 143 595 c 2,18,-1
 187 588 l 2,19,20
 216 584 216 584 221 571.5 c 128,-1,21
 226 559 226 559 226 550 c 0,22,23
 226 530 226 530 222.5 508.5 c 128,-1,24
 219 487 219 487 216 473 c 1,25,-1
 161 482 l 1,26,27
 151 436 151 436 146 387.5 c 128,-1,28
 141 339 141 339 141 303 c 0,29,30
 141 272 141 272 147 225.5 c 128,-1,31
 153 179 153 179 173 109 c 1,32,-1
 296 109 l 1,33,-1
 360 488 l 1,34,-1
 338 491 l 2,35,36
 313 495 313 495 300.5 506 c 128,-1,37
 288 517 288 517 288 548 c 0,38,39
 288 570 288 570 294 593 c 128,-1,40
 300 616 300 616 312 647 c 1,41,-1
 339 647 l 1,42,-1
 339 644 l 2,43,44
 339 620 339 620 349.5 609.5 c 128,-1,45
 360 599 360 599 381 595 c 2,46,-1
 425 588 l 2,47,48
 454 584 454 584 459 571.5 c 128,-1,49
 464 559 464 559 464 550 c 0,50,51
 464 530 464 530 460.5 508.5 c 128,-1,52
 457 487 457 487 454 473 c 1,53,-1
 407 480 l 1,54,-1
 344 109 l 1,55,-1
 438 109 l 2,56,57
 474 109 474 109 502 130 c 128,-1,58
 530 151 530 151 551 186 c 128,-1,59
 572 221 572 221 587 262 c 128,-1,60
 602 303 602 303 611.5 344 c 128,-1,61
 621 385 621 385 626 418 c 128,-1,62
 631 451 631 451 632 469 c 2,63,-1
 633 482 l 1,64,-1
 574 487 l 2,65,66
 547 489 547 489 535.5 502 c 128,-1,67
 524 515 524 515 524 549 c 0,68,69
 524 567 524 567 528.5 585.5 c 128,-1,70
 533 604 533 604 548 647 c 1,71,-1
 575 647 l 1,72,-1
 575 644 l 2,73,74
 575 629 575 629 581 613.5 c 128,-1,75
 587 598 587 598 612 596 c 2,76,-1
 650 593 l 2,77,78
 689 590 689 590 686 534 c 2,79,-1
 683 473 l 2,80,81
 682 448 682 448 677 404 c 128,-1,82
 672 360 672 360 662 306.5 c 128,-1,83
 652 253 652 253 634.5 199 c 128,-1,84
 617 145 617 145 590.5 100 c 128,-1,85
 564 55 564 55 526.5 27.5 c 128,-1,86
 489 0 489 0 439 0 c 2,87,-1
 117 0 l 1,0,1
EndSplineSet
PairPos2: "'kern' Horizontal Kerning in +BBgEMgRABDgEQgAA lookup 0 subtable" uni05D0 dx=-10 dy=0 dh=-10 dv=0 dx=0 dy=0 dh=0 dv=0
EndChar

StartChar: uni05C1
Encoding: 1473 1473 106
Width: 0
GlyphClass: 4
Flags: W
AnchorPoint: "+BBEENQQ3BEsEPARPBD0EPQQ+BDUA--5" 84 536 mark 0
LayerCount: 2
Fore
SplineSet
83 670 m 256,0,1
 66 670 66 670 56 680 c 128,-1,2
 46 690 46 690 46 713 c 0,3,4
 46 755 46 755 83 755 c 0,5,6
 100 755 100 755 110.5 744.5 c 128,-1,7
 121 734 121 734 121 713 c 0,8,9
 121 691 121 691 110.5 680.5 c 128,-1,10
 100 670 100 670 83 670 c 256,0,1
EndSplineSet
EndChar

StartChar: uni05BD
Encoding: 1469 1469 109
Width: 0
GlyphClass: 4
Flags: W
AnchorPoint: "+BBEENQQ3BEsEPARPBD0EPQQ+BDUA--6" 74 0 mark 0
AnchorPoint: "+BBEENQQ3BEsEPARPBD0EPQQ+BDUA--0" 74 0 mark 0
LayerCount: 2
Fore
SplineSet
47 -276 m 1,0,-1
 47 -73 l 1,1,-1
 100 -70 l 1,2,-1
 100 -273 l 1,3,-1
 47 -276 l 1,0,-1
EndSplineSet
EndChar

StartChar: uni05C2
Encoding: 1474 1474 110
Width: 0
GlyphClass: 4
Flags: W
AnchorPoint: "+BBEENQQ3BEsEPARPBD0EPQQ+BDUA--9" 84 536 mark 0
AnchorPoint: "+BBEENQQ3BEsEPARPBD0EPQQ+BDUA--3" 84 536 mark 0
LayerCount: 2
Fore
SplineSet
83 670 m 256,0,1
 66 670 66 670 56 680 c 128,-1,2
 46 690 46 690 46 713 c 0,3,4
 46 755 46 755 83 755 c 0,5,6
 100 755 100 755 110.5 744.5 c 128,-1,7
 121 734 121 734 121 713 c 0,8,9
 121 691 121 691 110.5 680.5 c 128,-1,10
 100 670 100 670 83 670 c 256,0,1
EndSplineSet
EndChar

StartChar: uni05C3
Encoding: 1475 1475 111
Width: 286
Flags: W
LayerCount: 2
Fore
SplineSet
144 405 m 256,0,1
 118 405 118 405 99.5 420 c 128,-1,2
 81 435 81 435 81 473 c 0,3,4
 81 512 81 512 99.5 526.5 c 128,-1,5
 118 541 118 541 144 541 c 256,6,7
 170 541 170 541 188.5 526.5 c 128,-1,8
 207 512 207 512 207 473 c 0,9,10
 207 435 207 435 188.5 420 c 128,-1,11
 170 405 170 405 144 405 c 256,0,1
144 -7 m 256,12,13
 118 -7 118 -7 99.5 8 c 128,-1,14
 81 23 81 23 81 61 c 0,15,16
 81 100 81 100 99.5 114.5 c 128,-1,17
 118 129 118 129 144 129 c 256,18,19
 170 129 170 129 188.5 114.5 c 128,-1,20
 207 100 207 100 207 61 c 0,21,22
 207 23 207 23 188.5 8 c 128,-1,23
 170 -7 170 -7 144 -7 c 256,12,13
EndSplineSet
EndChar

StartChar: uni05EA
Encoding: 1514 1514 112
Width: 606
GlyphClass: 2
Flags: W
AnchorPoint: "+BBEENQQ3BEsEPARPBD0EPQQ+BDUA--4" 335 0 basechar 0
AnchorPoint: "+BBEENQQ3BEsEPARPBD0EPQQ+BDUA--3" 307 536 basechar 0
AnchorPoint: "+BBEENQQ3BEsEPARPBD0EPQQ+BDUA--2" 39 536 basechar 0
AnchorPoint: "+BBEENQQ3BEsEPARPBD0EPQQ+BDUA--1" 322 300 basechar 0
AnchorPoint: "+BBEENQQ3BEsEPARPBD0EPQQ+BDUA--0" 35 0 basechar 0
LayerCount: 2
Fore
SplineSet
25 0 m 1,0,-1
 34 109 l 1,1,-1
 89 109 l 2,2,3
 109 109 109 109 116.5 115.5 c 128,-1,4
 124 122 124 122 123 141 c 2,5,-1
 117 268 l 2,6,7
 115 314 115 314 125 362 c 128,-1,8
 135 410 135 410 157 481 c 1,9,-1
 157 483 l 1,10,-1
 121 483 l 2,11,12
 97 483 97 483 84.5 499 c 128,-1,13
 72 515 72 515 72 555 c 0,14,15
 72 572 72 572 75 588.5 c 128,-1,16
 78 605 78 605 86 647 c 1,17,-1
 113 647 l 1,18,-1
 113 643 l 2,19,20
 113 618 113 618 128.5 605 c 128,-1,21
 144 592 144 592 164 592 c 2,22,-1
 403 592 l 2,23,24
 438 592 438 592 465.5 580 c 128,-1,25
 493 568 493 568 510 538 c 128,-1,26
 527 508 527 508 528 454 c 2,27,-1
 541 29 l 1,28,29
 519 7 519 7 487 -7 c 1,30,-1
 472 -7 l 1,31,-1
 472 417 l 2,32,33
 472 445 472 445 459 464 c 128,-1,34
 446 483 446 483 402 483 c 2,35,-1
 196 483 l 1,36,37
 195 473 195 473 188.5 442 c 128,-1,38
 182 411 182 411 176.5 373.5 c 128,-1,39
 171 336 171 336 171 303 c 0,40,41
 171 267 171 267 178 220 c 128,-1,42
 185 173 185 173 191.5 128.5 c 128,-1,43
 198 84 198 84 198 55 c 0,44,45
 198 38 198 38 195 26 c 128,-1,46
 192 14 192 14 187 0 c 1,47,-1
 25 0 l 1,0,-1
EndSplineSet
PairPos2: "'kern' Horizontal Kerning in +BBgEMgRABDgEQgAA lookup 0 subtable" uni05DC dx=-20 dy=0 dh=-20 dv=0 dx=0 dy=0 dh=0 dv=0
PairPos2: "'kern' Horizontal Kerning in +BBgEMgRABDgEQgAA lookup 0 subtable" uni05D0 dx=-20 dy=0 dh=-20 dv=0 dx=0 dy=0 dh=0 dv=0
EndChar

StartChar: uni05A0
Encoding: 1440 1440 114
Width: 0
GlyphClass: 4
Flags: W
AnchorPoint: "+BBEENQQ3BEsEPARPBD0EPQQ+BDUA--9" 157 536 mark 0
AnchorPoint: "+BBEENQQ3BEsEPARPBD0EPQQ+BDUA--3" 157 536 mark 0
LayerCount: 2
Fore
SplineSet
86 660 m 1,0,-1
 50 696 l 1,1,-1
 89 735 l 1,2,3
 76 756 76 756 76 781 c 0,4,5
 76 820 76 820 103.5 847 c 128,-1,6
 131 874 131 874 170 874 c 256,7,8
 209 874 209 874 236.5 847.5 c 128,-1,9
 264 821 264 821 264 781 c 0,10,11
 264 742 264 742 237 715 c 128,-1,12
 210 688 210 688 170 688 c 0,13,14
 144 688 144 688 124 698 c 1,15,-1
 86 660 l 1,0,-1
169 734 m 0,16,17
 189 734 189 734 203 748 c 128,-1,18
 217 762 217 762 217 781 c 256,19,20
 217 800 217 800 202.5 814 c 128,-1,21
 188 828 188 828 169 828 c 0,22,23
 151 828 151 828 137 814.5 c 128,-1,24
 123 801 123 801 123 781 c 0,25,26
 123 762 123 762 136.5 748 c 128,-1,27
 150 734 150 734 169 734 c 0,16,17
EndSplineSet
EndChar

StartChar: uni05A9
Encoding: 1449 1449 115
Width: 0
GlyphClass: 4
Flags: W
AnchorPoint: "+BBEENQQ3BEsEPARPBD0EPQQ+BDUA--8" 144 536 mark 0
AnchorPoint: "+BBEENQQ3BEsEPARPBD0EPQQ+BDUA--2" 144 536 mark 0
LayerCount: 2
Fore
SplineSet
228 660 m 1,0,-1
 190 698 l 1,1,2
 170 688 170 688 144 688 c 0,3,4
 104 688 104 688 77 715 c 128,-1,5
 50 742 50 742 50 781 c 256,6,7
 50 820 50 820 77.5 847 c 128,-1,8
 105 874 105 874 144 874 c 256,9,10
 183 874 183 874 210.5 847 c 128,-1,11
 238 820 238 820 238 781 c 0,12,13
 238 756 238 756 225 735 c 1,14,-1
 264 696 l 1,15,-1
 228 660 l 1,0,-1
145 734 m 256,16,17
 164 734 164 734 177.5 748 c 128,-1,18
 191 762 191 762 191 781 c 0,19,20
 191 801 191 801 177 814.5 c 128,-1,21
 163 828 163 828 145 828 c 0,22,23
 126 828 126 828 111.5 814 c 128,-1,24
 97 800 97 800 97 781 c 256,25,26
 97 762 97 762 111.5 748 c 128,-1,27
 126 734 126 734 145 734 c 256,16,17
EndSplineSet
EndChar

StartChar: uni05D8
Encoding: 1496 1496 116
Width: 637
GlyphClass: 2
Flags: W
AnchorPoint: "+BBEENQQ3BEsEPARPBD0EPQQ+BDUA--4" 321 0 basechar 0
AnchorPoint: "+BBEENQQ3BEsEPARPBD0EPQQ+BDUA--3" 369 536 basechar 0
AnchorPoint: "+BBEENQQ3BEsEPARPBD0EPQQ+BDUA--2" 22 536 basechar 0
AnchorPoint: "+BBEENQQ3BEsEPARPBD0EPQQ+BDUA--1" 343 300 basechar 0
AnchorPoint: "+BBEENQQ3BEsEPARPBD0EPQQ+BDUA--0" 107 0 basechar 0
LayerCount: 2
Fore
SplineSet
133 0 m 1,0,1
 116 110 116 110 107.5 181 c 128,-1,2
 99 252 99 252 99 286 c 0,3,4
 99 330 99 330 110.5 384.5 c 128,-1,5
 122 439 122 439 136 485 c 1,6,-1
 100 490 l 2,7,8
 73 494 73 494 61.5 506.5 c 128,-1,9
 50 519 50 519 50 552 c 0,10,11
 50 570 50 570 56 590 c 128,-1,12
 62 610 62 610 77 647 c 1,13,-1
 104 647 l 1,14,-1
 104 642 l 2,15,16
 104 599 104 599 143 593 c 2,17,-1
 213 584 l 2,18,19
 252 578 252 578 252 530 c 0,20,21
 252 520 252 520 250.5 507 c 128,-1,22
 249 494 249 494 244 469 c 1,23,-1
 178 479 l 1,24,25
 169 433 169 433 164 385.5 c 128,-1,26
 159 338 159 338 159 303 c 0,27,28
 159 272 159 272 165 226 c 128,-1,29
 171 180 171 180 192 109 c 1,30,-1
 382 109 l 2,31,32
 418 109 418 109 446 127 c 128,-1,33
 474 145 474 145 493 178 c 0,34,35
 527 238 527 238 527 330 c 0,36,37
 527 399 527 399 510 435 c 128,-1,38
 493 471 493 471 468 484 c 128,-1,39
 443 497 443 497 420 497 c 0,40,41
 386 497 386 497 368.5 476 c 128,-1,42
 351 455 351 455 341 415 c 1,43,-1
 311 415 l 1,44,45
 324 507 324 507 361 555.5 c 128,-1,46
 398 604 398 604 456 604 c 0,47,48
 522 604 522 604 552 542.5 c 128,-1,49
 582 481 582 481 582 371 c 0,50,51
 582 344 582 344 578 297.5 c 128,-1,52
 574 251 574 251 558.5 189.5 c 128,-1,53
 543 128 543 128 509 55 c 0,54,55
 499 34 499 34 489 22 c 128,-1,56
 479 10 479 10 459.5 5 c 128,-1,57
 440 0 440 0 400 0 c 2,58,-1
 133 0 l 1,0,1
EndSplineSet
PairPos2: "'kern' Horizontal Kerning in +BBgEMgRABDgEQgAA lookup 0 subtable" uni05E2 dx=-20 dy=0 dh=-20 dv=0 dx=0 dy=0 dh=0 dv=0
EndChar

StartChar: uni059B
Encoding: 1435 1435 118
Width: 0
GlyphClass: 4
Flags: W
AnchorPoint: "+BBEENQQ3BEsEPARPBD0EPQQ+BDUA--6" 193 0 mark 0
AnchorPoint: "+BBEENQQ3BEsEPARPBD0EPQQ+BDUA--0" 193 0 mark 0
LayerCount: 2
Fore
SplineSet
86 -161 m 0,0,1
 71 -161 71 -161 60.5 -150.5 c 128,-1,2
 50 -140 50 -140 50 -124 c 0,3,4
 50 -109 50 -109 60.5 -98 c 128,-1,5
 71 -87 71 -87 86 -87 c 0,6,7
 102 -87 102 -87 112.5 -97.5 c 128,-1,8
 123 -108 123 -108 123 -124 c 256,9,10
 123 -140 123 -140 112.5 -150.5 c 128,-1,11
 102 -161 102 -161 86 -161 c 0,0,1
109 -238 m 1,12,13
 130 -233 130 -233 142.5 -224 c 128,-1,14
 155 -215 155 -215 161 -204 c 0,15,16
 171 -186 171 -186 171 -153 c 128,-1,17
 171 -120 171 -120 169 -90 c 1,18,-1
 218 -87 l 1,19,20
 222 -138 222 -138 220 -174.5 c 128,-1,21
 218 -211 218 -211 202 -234 c 0,22,23
 173 -274 173 -274 106 -290 c 1,24,-1
 109 -238 l 1,12,13
EndSplineSet
EndChar

StartChar: uni0596
Encoding: 1430 1430 119
Width: 0
GlyphClass: 4
Flags: W
AnchorPoint: "+BBEENQQ3BEsEPARPBD0EPQQ+BDUA--6" 75 0 mark 0
AnchorPoint: "+BBEENQQ3BEsEPARPBD0EPQQ+BDUA--0" 75 0 mark 0
LayerCount: 2
Fore
SplineSet
162 -238 m 1,0,-1
 158 -290 l 1,1,2
 126 -282 126 -282 103 -267.5 c 128,-1,3
 80 -253 80 -253 66 -234 c 0,4,5
 50 -211 50 -211 48 -174.5 c 128,-1,6
 46 -138 46 -138 50 -87 c 1,7,-1
 99 -84 l 1,8,9
 97 -114 97 -114 97 -150 c 128,-1,10
 97 -186 97 -186 107 -204 c 0,11,12
 119 -227 119 -227 162 -238 c 1,0,-1
EndSplineSet
EndChar

StartChar: uni05E6
Encoding: 1510 1510 120
Width: 531
GlyphClass: 2
Flags: W
AnchorPoint: "+BBEENQQ3BEsEPARPBD0EPQQ+BDUA--4" 225 0 basechar 0
AnchorPoint: "+BBEENQQ3BEsEPARPBD0EPQQ+BDUA--3" 271 536 basechar 0
AnchorPoint: "+BBEENQQ3BEsEPARPBD0EPQQ+BDUA--2" 30 536 basechar 0
AnchorPoint: "+BBEENQQ3BEsEPARPBD0EPQQ+BDUA--1" 139 243 basechar 0
AnchorPoint: "+BBEENQQ3BEsEPARPBD0EPQQ+BDUA--0" 10 0 basechar 0
LayerCount: 2
Fore
SplineSet
30 0 m 1,0,-1
 50 109 l 1,1,-1
 337 109 l 2,2,3
 349 109 349 109 357 116 c 0,4,5
 366 123 366 123 366 138 c 0,6,7
 366 148 366 148 360.5 156.5 c 128,-1,8
 355 165 355 165 340 178 c 2,9,-1
 227 280 l 2,10,11
 197 307 197 307 186.5 343 c 128,-1,12
 176 379 176 379 176 419 c 2,13,-1
 176 453 l 2,14,15
 176 473 176 473 173 478 c 128,-1,16
 170 483 170 483 150 483 c 2,17,-1
 94 483 l 2,18,19
 70 483 70 483 57.5 497.5 c 128,-1,20
 45 512 45 512 45 552 c 0,21,22
 45 569 45 569 48 587 c 128,-1,23
 51 605 51 605 59 647 c 1,24,-1
 86 647 l 1,25,-1
 86 643 l 2,26,27
 86 618 86 618 101.5 605 c 128,-1,28
 117 592 117 592 137 592 c 2,29,-1
 174 592 l 2,30,31
 210 592 210 592 219.5 573.5 c 128,-1,32
 229 555 229 555 229 514 c 2,33,-1
 229 433 l 2,34,35
 229 406 229 406 236 388.5 c 128,-1,36
 243 371 243 371 258 355.5 c 128,-1,37
 273 340 273 340 297 318 c 2,38,-1
 308 307 l 1,39,40
 310 325 310 325 319.5 349.5 c 128,-1,41
 329 374 329 374 337 389 c 2,42,-1
 391 487 l 1,43,-1
 365 491 l 2,44,45
 340 495 340 495 327.5 505.5 c 128,-1,46
 315 516 315 516 315 552 c 0,47,48
 315 564 315 564 317 574.5 c 128,-1,49
 319 585 319 585 324 601.5 c 128,-1,50
 329 618 329 618 339 647 c 1,51,-1
 366 647 l 1,52,-1
 366 643 l 2,53,54
 366 620 366 620 376.5 609 c 128,-1,55
 387 598 387 598 408 595 c 2,56,-1
 462 588 l 2,57,58
 501 583 501 583 501 538 c 0,59,60
 501 525 501 525 498 502.5 c 128,-1,61
 495 480 495 480 493 473 c 1,62,-1
 435 481 l 1,63,-1
 381 381 l 2,64,65
 366 353 366 353 359 324.5 c 128,-1,66
 352 296 352 296 351 268 c 1,67,-1
 411 212 l 2,68,69
 427 197 427 197 442 174.5 c 128,-1,70
 457 152 457 152 458 117 c 0,71,72
 459 94 459 94 445 62.5 c 128,-1,73
 431 31 431 31 418 0 c 1,74,-1
 30 0 l 1,0,-1
EndSplineSet
PairPos2: "'kern' Horizontal Kerning in +BBgEMgRABDgEQgAA lookup 0 subtable" uni05D6 dx=-20 dy=0 dh=-20 dv=0 dx=0 dy=0 dh=0 dv=0
PairPos2: "'kern' Horizontal Kerning in +BBgEMgRABDgEQgAA lookup 0 subtable" uni05D8 dx=-20 dy=0 dh=-20 dv=0 dx=0 dy=0 dh=0 dv=0
PairPos2: "'kern' Horizontal Kerning in +BBgEMgRABDgEQgAA lookup 0 subtable" uni05E9 dx=-20 dy=0 dh=-20 dv=0 dx=0 dy=0 dh=0 dv=0
PairPos2: "'kern' Horizontal Kerning in +BBgEMgRABDgEQgAA lookup 0 subtable" uni05E7 dx=-20 dy=0 dh=-20 dv=0 dx=0 dy=0 dh=0 dv=0
PairPos2: "'kern' Horizontal Kerning in +BBgEMgRABDgEQgAA lookup 0 subtable" uni05DE dx=-30 dy=0 dh=-30 dv=0 dx=0 dy=0 dh=0 dv=0
PairPos2: "'kern' Horizontal Kerning in +BBgEMgRABDgEQgAA lookup 0 subtable" uni05DC dx=-30 dy=0 dh=-30 dv=0 dx=0 dy=0 dh=0 dv=0
PairPos2: "'kern' Horizontal Kerning in +BBgEMgRABDgEQgAA lookup 0 subtable" uni05D7 dx=-20 dy=0 dh=-20 dv=0 dx=0 dy=0 dh=0 dv=0
PairPos2: "'kern' Horizontal Kerning in +BBgEMgRABDgEQgAA lookup 0 subtable" uni05D2 dx=-20 dy=0 dh=-20 dv=0 dx=0 dy=0 dh=0 dv=0
PairPos2: "'kern' Horizontal Kerning in +BBgEMgRABDgEQgAA lookup 0 subtable" uni05DD dx=-20 dy=0 dh=-20 dv=0 dx=0 dy=0 dh=0 dv=0
PairPos2: "'kern' Horizontal Kerning in +BBgEMgRABDgEQgAA lookup 0 subtable" uni05D3 dx=-20 dy=0 dh=-20 dv=0 dx=0 dy=0 dh=0 dv=0
PairPos2: "'kern' Horizontal Kerning in +BBgEMgRABDgEQgAA lookup 0 subtable" uni05E2 dx=-20 dy=0 dh=-20 dv=0 dx=0 dy=0 dh=0 dv=0
EndChar

StartChar: uni05B5
Encoding: 1461 1461 122
Width: 0
GlyphClass: 4
Flags: W
AnchorPoint: "+BBEENQQ3BEsEPARPBD0EPQQ+BDUA--10" 145 0 mark 0
AnchorPoint: "+BBEENQQ3BEsEPARPBD0EPQQ+BDUA--4" 145 0 mark 0
LayerCount: 2
Fore
SplineSet
205 -155 m 0,0,1
 168 -155 168 -155 168 -112 c 0,2,3
 168 -70 168 -70 205 -70 c 0,4,5
 222 -70 222 -70 232.5 -80.5 c 128,-1,6
 243 -91 243 -91 243 -112 c 0,7,8
 243 -134 243 -134 232.5 -144.5 c 128,-1,9
 222 -155 222 -155 205 -155 c 0,0,1
83 -155 m 0,10,11
 46 -155 46 -155 46 -112 c 0,12,13
 46 -70 46 -70 83 -70 c 0,14,15
 100 -70 100 -70 110.5 -80.5 c 128,-1,16
 121 -91 121 -91 121 -112 c 0,17,18
 121 -134 121 -134 110.5 -144.5 c 128,-1,19
 100 -155 100 -155 83 -155 c 0,10,11
EndSplineSet
EndChar

StartChar: uni05C4
Encoding: 1476 1476 123
Width: 0
GlyphClass: 4
Flags: W
AnchorPoint: "+BBEENQQ3BEsEPARPBD0EPQQ+BDUA--9" 84 536 mark 0
AnchorPoint: "+BBEENQQ3BEsEPARPBD0EPQQ+BDUA--3" 84 536 mark 0
LayerCount: 2
Fore
SplineSet
83 670 m 256,0,1
 66 670 66 670 56 680 c 128,-1,2
 46 690 46 690 46 713 c 0,3,4
 46 755 46 755 83 755 c 0,5,6
 100 755 100 755 110.5 744.5 c 128,-1,7
 121 734 121 734 121 713 c 0,8,9
 121 691 121 691 110.5 680.5 c 128,-1,10
 100 670 100 670 83 670 c 256,0,1
EndSplineSet
EndChar

StartChar: uni05D5
Encoding: 1493 1493 124
Width: 326
GlyphClass: 2
Flags: W
AnchorPoint: "+BBEENQQ3BEsEPARPBD0EPQQ+BDUA--4" 215 0 basechar 0
AnchorPoint: "+BBEENQQ3BEsEPARPBD0EPQQ+BDUA--3" 153 536 basechar 0
AnchorPoint: "+BBEENQQ3BEsEPARPBD0EPQQ+BDUA--2" -1 536 basechar 0
AnchorPoint: "+BBEENQQ3BEsEPARPBD0EPQQ+BDUA--1" 103 300 basechar 0
AnchorPoint: "+BBEENQQ3BEsEPARPBD0EPQQ+BDUA--0" 14 0 basechar 0
LayerCount: 2
Fore
SplineSet
182 -7 m 1,0,-1
 182 447 l 2,1,2
 182 467 182 467 177 475 c 128,-1,3
 172 483 172 483 155 483 c 2,4,-1
 89 483 l 2,5,6
 65 483 65 483 52.5 499.5 c 128,-1,7
 40 516 40 516 40 555 c 0,8,9
 40 572 40 572 43 591 c 128,-1,10
 46 610 46 610 54 647 c 1,11,-1
 81 647 l 1,12,-1
 81 644 l 2,13,14
 81 620 81 620 94.5 606 c 128,-1,15
 108 592 108 592 134 592 c 2,16,-1
 191 592 l 2,17,18
 217 592 217 592 227 579.5 c 128,-1,19
 237 567 237 567 238 535 c 2,20,-1
 251 30 l 1,21,22
 240 18 240 18 228.5 9.5 c 128,-1,23
 217 1 217 1 197 -7 c 1,24,-1
 182 -7 l 1,0,-1
EndSplineSet
PairPos2: "'kern' Horizontal Kerning in +BBgEMgRABDgEQgAA lookup 0 subtable" uni05E6 dx=-20 dy=0 dh=-20 dv=0 dx=0 dy=0 dh=0 dv=0
PairPos2: "'kern' Horizontal Kerning in +BBgEMgRABDgEQgAA lookup 0 subtable" uni05EA dx=-20 dy=0 dh=-20 dv=0 dx=0 dy=0 dh=0 dv=0
PairPos2: "'kern' Horizontal Kerning in +BBgEMgRABDgEQgAA lookup 0 subtable" uni05E9 dx=-30 dy=0 dh=-30 dv=0 dx=0 dy=0 dh=0 dv=0
PairPos2: "'kern' Horizontal Kerning in +BBgEMgRABDgEQgAA lookup 0 subtable" uni05E1 dx=-10 dy=0 dh=-10 dv=0 dx=0 dy=0 dh=0 dv=0
PairPos2: "'kern' Horizontal Kerning in +BBgEMgRABDgEQgAA lookup 0 subtable" uni05E8 dx=-20 dy=0 dh=-20 dv=0 dx=0 dy=0 dh=0 dv=0
PairPos2: "'kern' Horizontal Kerning in +BBgEMgRABDgEQgAA lookup 0 subtable" uni05E4 dx=-20 dy=0 dh=-20 dv=0 dx=0 dy=0 dh=0 dv=0
PairPos2: "'kern' Horizontal Kerning in +BBgEMgRABDgEQgAA lookup 0 subtable" uni05DE dx=-20 dy=0 dh=-20 dv=0 dx=0 dy=0 dh=0 dv=0
PairPos2: "'kern' Horizontal Kerning in +BBgEMgRABDgEQgAA lookup 0 subtable" uni05DC dx=-20 dy=0 dh=-20 dv=0 dx=0 dy=0 dh=0 dv=0
EndChar

StartChar: uni05F0
Encoding: 1520 1520 128
Width: 652
GlyphClass: 3
LigCaretCntFixed: 1
Flags: W
LayerCount: 2
Fore
SplineSet
508 -7 m 1,0,-1
 508 447 l 2,1,2
 508 467 508 467 503 475 c 128,-1,3
 498 483 498 483 481 483 c 2,4,-1
 415 483 l 2,5,6
 391 483 391 483 378.5 499.5 c 128,-1,7
 366 516 366 516 366 555 c 0,8,9
 366 572 366 572 369 591 c 128,-1,10
 372 610 372 610 380 647 c 1,11,-1
 407 647 l 1,12,-1
 407 644 l 2,13,14
 407 620 407 620 420.5 606 c 128,-1,15
 434 592 434 592 460 592 c 2,16,-1
 517 592 l 2,17,18
 543 592 543 592 553 579.5 c 128,-1,19
 563 567 563 567 564 535 c 2,20,-1
 577 30 l 1,21,22
 566 18 566 18 554.5 9.5 c 128,-1,23
 543 1 543 1 523 -7 c 1,24,-1
 508 -7 l 1,0,-1
182 -7 m 1,25,-1
 182 447 l 2,26,27
 182 467 182 467 177 475 c 128,-1,28
 172 483 172 483 155 483 c 2,29,-1
 89 483 l 2,30,31
 65 483 65 483 52.5 499.5 c 128,-1,32
 40 516 40 516 40 555 c 0,33,34
 40 572 40 572 43 591 c 128,-1,35
 46 610 46 610 54 647 c 1,36,-1
 81 647 l 1,37,-1
 81 644 l 2,38,39
 81 620 81 620 94.5 606 c 128,-1,40
 108 592 108 592 134 592 c 2,41,-1
 191 592 l 2,42,43
 217 592 217 592 227 579.5 c 128,-1,44
 237 567 237 567 238 535 c 2,45,-1
 251 30 l 1,46,47
 240 18 240 18 228.5 9.5 c 128,-1,48
 217 1 217 1 197 -7 c 1,49,-1
 182 -7 l 1,25,-1
EndSplineSet
Ligature2: "'dlig' Discretionary Ligatures in +BBgEMgRABDgEQgAA lookup 2 subtable" uni05D5 uni05D5
LCarets2: 1 326
EndChar

StartChar: uniFB21
Encoding: 64289 64289 130
Width: 890
Flags: W
LayerCount: 2
Fore
SplineSet
53 0 m 1,0,-1
 53 46 l 1,1,-1
 62 46 l 2,2,3
 85 46 85 46 92.5 54.5 c 128,-1,4
 100 63 100 63 95 82 c 2,5,-1
 78 155 l 2,6,7
 67 204 67 204 69 243.5 c 128,-1,8
 71 283 71 283 96 323 c 2,9,-1
 157 422 l 1,10,-1
 100 458 l 2,11,12
 68 478 68 478 60 505 c 128,-1,13
 52 532 52 532 52 553 c 0,14,15
 52 582 52 582 60 603.5 c 128,-1,16
 68 625 68 625 77 647 c 1,17,-1
 101 647 l 1,18,-1
 101 643 l 2,19,20
 101 621 101 621 106 598 c 128,-1,21
 111 575 111 575 145 554 c 2,22,-1
 633 252 l 1,23,24
 634 268 634 268 643.5 292 c 128,-1,25
 653 316 653 316 662 335 c 2,26,-1
 737 485 l 1,27,-1
 713 489 l 2,28,29
 688 493 688 493 675.5 504.5 c 128,-1,30
 663 516 663 516 663 553 c 0,31,32
 663 570 663 570 668.5 594 c 128,-1,33
 674 618 674 618 687 647 c 1,34,-1
 714 647 l 1,35,-1
 714 643 l 2,36,37
 714 599 714 599 756 593 c 2,38,-1
 811 584 l 2,39,40
 850 578 850 578 850 530 c 0,41,42
 850 520 850 520 848.5 507.5 c 128,-1,43
 847 495 847 495 842 468 c 1,44,-1
 779 478 l 1,45,-1
 712 332 l 2,46,47
 685 274 685 274 682 221 c 1,48,-1
 789 155 l 2,49,50
 817 138 817 138 826.5 111 c 128,-1,51
 836 84 836 84 836 64 c 0,52,53
 836 32 836 32 824.5 16.5 c 128,-1,54
 813 1 813 1 801 -10 c 1,55,-1
 787 -10 l 1,56,57
 786 3 786 3 781 19.5 c 128,-1,58
 776 36 776 36 750 52 c 2,59,-1
 189 402 l 1,60,-1
 150 329 l 2,61,62
 132 296 132 296 130 266.5 c 128,-1,63
 128 237 128 237 145 199 c 2,64,-1
 183 115 l 2,65,66
 209 56 209 56 183 0 c 1,67,-1
 53 0 l 1,0,-1
EndSplineSet
EndChar

StartChar: uniFB22
Encoding: 64290 64290 131
Width: 792
Flags: W
LayerCount: 2
Fore
SplineSet
620 -7 m 1,0,-1
 620 304 l 2,1,2
 620 371 620 371 627 414 c 128,-1,3
 634 457 634 457 639 482 c 1,4,-1
 639 483 l 1,5,-1
 61 483 l 2,6,7
 38 483 38 483 25 499 c 128,-1,8
 12 515 12 515 12 552 c 0,9,10
 12 565 12 565 13 576 c 128,-1,11
 14 587 14 587 17.5 603 c 128,-1,12
 21 619 21 619 26 647 c 1,13,-1
 53 647 l 1,14,-1
 53 643 l 2,15,16
 53 592 53 592 106 592 c 2,17,-1
 712 592 l 2,18,19
 729 592 729 592 735.5 585 c 128,-1,20
 742 578 742 578 742 559 c 2,21,-1
 742 483 l 1,22,-1
 675 483 l 1,23,-1
 689 29 l 1,24,25
 667 7 667 7 635 -7 c 1,26,-1
 620 -7 l 1,0,-1
EndSplineSet
EndChar

StartChar: uniFB23
Encoding: 64291 64291 132
Width: 905
Flags: W
LayerCount: 2
Fore
SplineSet
748 -7 m 1,0,-1
 748 300 l 2,1,2
 748 368 748 368 755 411.5 c 128,-1,3
 762 455 762 455 767 480 c 1,4,-1
 767 483 l 1,5,-1
 109 483 l 2,6,7
 86 483 86 483 73 499 c 128,-1,8
 60 515 60 515 60 552 c 0,9,10
 60 565 60 565 61 576 c 128,-1,11
 62 587 62 587 65.5 603 c 128,-1,12
 69 619 69 619 74 647 c 1,13,-1
 101 647 l 1,14,-1
 101 643 l 2,15,16
 101 616 101 616 115 604 c 128,-1,17
 129 592 129 592 154 592 c 2,18,-1
 800 592 l 2,19,20
 817 592 817 592 823.5 585 c 128,-1,21
 830 578 830 578 830 559 c 2,22,-1
 830 492 l 1,23,-1
 804 483 l 1,24,-1
 817 29 l 1,25,26
 795 7 795 7 763 -7 c 1,27,-1
 748 -7 l 1,0,-1
78 -7 m 1,28,-1
 78 262 l 2,29,30
 78 296 78 296 85 313 c 128,-1,31
 92 330 92 330 108 334 c 2,32,-1
 140 343 l 1,33,-1
 146 336 l 1,34,-1
 147 29 l 1,35,36
 125 7 125 7 93 -7 c 1,37,-1
 78 -7 l 1,28,-1
EndSplineSet
EndChar

StartChar: uniFB24
Encoding: 64292 64292 133
Width: 850
Flags: W
LayerCount: 2
Fore
SplineSet
49 0 m 1,0,-1
 76 109 l 1,1,-1
 596 109 l 2,2,3
 658 109 658 109 694.5 139 c 128,-1,4
 731 169 731 169 731 227 c 2,5,-1
 731 376 l 2,6,7
 731 415 731 415 714.5 438.5 c 128,-1,8
 698 462 698 462 674 472.5 c 128,-1,9
 650 483 650 483 625 483 c 2,10,-1
 107 483 l 2,11,12
 84 483 84 483 71 499 c 128,-1,13
 58 515 58 515 58 552 c 0,14,15
 58 565 58 565 59 576 c 128,-1,16
 60 587 60 587 63.5 603 c 128,-1,17
 67 619 67 619 72 647 c 1,18,-1
 99 647 l 1,19,-1
 99 644 l 2,20,21
 99 619 99 619 114.5 605.5 c 128,-1,22
 130 592 130 592 150 592 c 2,23,-1
 624 592 l 2,24,25
 698 592 698 592 741.5 549.5 c 128,-1,26
 785 507 785 507 785 444 c 2,27,-1
 785 192 l 2,28,29
 785 125 785 125 763.5 82.5 c 128,-1,30
 742 40 742 40 709.5 20 c 128,-1,31
 677 0 677 0 643 0 c 2,32,-1
 49 0 l 1,0,-1
EndSplineSet
EndChar

StartChar: uniFB25
Encoding: 64293 64293 134
Width: 803
Flags: W
LayerCount: 2
Fore
SplineSet
515 -7 m 0,0,1
 497 -7 497 -7 489.5 3.5 c 128,-1,2
 482 14 482 14 482 41 c 2,3,-1
 482 65 l 2,4,5
 482 89 482 89 491.5 107.5 c 128,-1,6
 501 126 501 126 523 150 c 2,7,-1
 670 313 l 2,8,9
 683 327 683 327 688 336.5 c 128,-1,10
 693 346 693 346 693 358 c 2,11,-1
 693 437 l 2,12,13
 693 483 693 483 647 483 c 2,14,-1
 84 483 l 2,15,16
 59 483 59 483 47 500 c 128,-1,17
 35 517 35 517 35 548 c 0,18,19
 35 565 35 565 40.5 591.5 c 128,-1,20
 46 618 46 618 54 647 c 128,-1,21
 62 676 62 676 70 702 c 128,-1,22
 78 728 78 728 82 743 c 0,23,24
 87 762 87 762 70 765 c 2,25,-1
 40 769 l 2,26,27
 21 771 21 771 16.5 783 c 128,-1,28
 12 795 12 795 12 810 c 0,29,30
 12 824 12 824 18.5 844.5 c 128,-1,31
 25 865 25 865 28 873 c 1,32,-1
 48 873 l 1,33,-1
 48 871 l 2,34,35
 48 855 48 855 54 848 c 128,-1,36
 60 841 60 841 70 839 c 2,37,-1
 105 834 l 2,38,39
 125 831 125 831 131 814 c 128,-1,40
 137 797 137 797 126 758 c 2,41,-1
 96 643 l 2,42,43
 83 592 83 592 135 592 c 2,44,-1
 660 592 l 2,45,46
 699 592 699 592 717.5 576.5 c 128,-1,47
 736 561 736 561 741.5 538.5 c 128,-1,48
 747 516 747 516 747 493 c 2,49,-1
 746 359 l 2,50,51
 746 340 746 340 739.5 321.5 c 128,-1,52
 733 303 733 303 713 281 c 2,53,-1
 571 125 l 2,54,55
 560 112 560 112 555.5 99.5 c 128,-1,56
 551 87 551 87 551 67 c 2,57,-1
 551 41 l 2,58,59
 551 -7 551 -7 515 -7 c 0,0,1
EndSplineSet
EndChar

StartChar: uniFB27
Encoding: 64295 64295 135
Width: 784
Flags: W
LayerCount: 2
Fore
SplineSet
650 -7 m 1,0,-1
 650 417 l 2,1,2
 650 444 650 444 637 463.5 c 128,-1,3
 624 483 624 483 580 483 c 2,4,-1
 61 483 l 2,5,6
 37 483 37 483 24.5 499 c 128,-1,7
 12 515 12 515 12 555 c 0,8,9
 12 572 12 572 15 588.5 c 128,-1,10
 18 605 18 605 26 647 c 1,11,-1
 53 647 l 1,12,-1
 53 642 l 2,13,14
 53 618 53 618 69 605 c 128,-1,15
 85 592 85 592 104 592 c 2,16,-1
 581 592 l 2,17,18
 616 592 616 592 643.5 580 c 128,-1,19
 671 568 671 568 688 538 c 128,-1,20
 705 508 705 508 706 454 c 2,21,-1
 719 29 l 1,22,23
 697 7 697 7 665 -7 c 1,24,-1
 650 -7 l 1,0,-1
EndSplineSet
EndChar

StartChar: uniFB28
Encoding: 64296 64296 136
Width: 906
Flags: W
LayerCount: 2
Fore
SplineSet
25 0 m 1,0,-1
 34 109 l 1,1,-1
 89 109 l 2,2,3
 109 109 109 109 116.5 115.5 c 128,-1,4
 124 122 124 122 123 141 c 2,5,-1
 117 268 l 2,6,7
 115 314 115 314 125 362 c 128,-1,8
 135 410 135 410 157 481 c 1,9,-1
 157 483 l 1,10,-1
 121 483 l 2,11,12
 97 483 97 483 84.5 499 c 128,-1,13
 72 515 72 515 72 555 c 0,14,15
 72 572 72 572 75 588.5 c 128,-1,16
 78 605 78 605 86 647 c 1,17,-1
 113 647 l 1,18,-1
 113 645 l 2,19,20
 113 620 113 620 128.5 606 c 128,-1,21
 144 592 144 592 164 592 c 2,22,-1
 703 592 l 2,23,24
 738 592 738 592 765.5 580 c 128,-1,25
 793 568 793 568 810 538 c 128,-1,26
 827 508 827 508 828 454 c 2,27,-1
 841 29 l 1,28,29
 819 7 819 7 787 -7 c 1,30,-1
 772 -7 l 1,31,-1
 772 417 l 2,32,33
 772 445 772 445 759 464 c 128,-1,34
 746 483 746 483 702 483 c 2,35,-1
 196 483 l 1,36,37
 195 473 195 473 188.5 442 c 128,-1,38
 182 411 182 411 176.5 373.5 c 128,-1,39
 171 336 171 336 171 303 c 0,40,41
 171 267 171 267 178 220 c 128,-1,42
 185 173 185 173 191.5 128.5 c 128,-1,43
 198 84 198 84 198 55 c 0,44,45
 198 38 198 38 195 26 c 128,-1,46
 192 14 192 14 187 0 c 1,47,-1
 25 0 l 1,0,-1
EndSplineSet
EndChar

StartChar: uni05AA
Encoding: 1450 1450 137
Width: 0
GlyphClass: 4
Flags: W
AnchorPoint: "+BBEENQQ3BEsEPARPBD0EPQQ+BDUA--6" 138 0 mark 0
AnchorPoint: "+BBEENQQ3BEsEPARPBD0EPQQ+BDUA--0" 138 0 mark 0
LayerCount: 2
Fore
SplineSet
161 -286 m 1,0,-1
 113 -289 l 1,1,-1
 113 -239 l 1,2,3
 91 -234 91 -234 75.5 -223 c 128,-1,4
 60 -212 60 -212 52 -196 c 0,5,6
 44 -179 44 -179 41.5 -165.5 c 128,-1,7
 39 -152 39 -152 39 -134 c 0,8,9
 39 -122 39 -122 39.5 -110.5 c 128,-1,10
 40 -99 40 -99 41 -88 c 1,11,-1
 88 -85 l 1,12,13
 87 -98 87 -98 86 -107 c 128,-1,14
 85 -116 85 -116 85 -127 c 0,15,16
 85 -161 85 -161 99 -178.5 c 128,-1,17
 113 -196 113 -196 138 -196 c 0,18,19
 189 -196 189 -196 189 -129 c 0,20,21
 189 -120 189 -120 189 -110 c 128,-1,22
 189 -100 189 -100 187 -88 c 1,23,-1
 233 -85 l 1,24,25
 236 -106 236 -106 236 -129 c 0,26,27
 236 -166 236 -166 222 -195 c 0,28,29
 205 -230 205 -230 161 -239 c 1,30,-1
 161 -286 l 1,0,-1
EndSplineSet
EndChar

StartChar: uni059A
Encoding: 1434 1434 138
Width: 0
GlyphClass: 4
Flags: W
AnchorPoint: "+BBEENQQ3BEsEPARPBD0EPQQ+BDUA--6" 166 0 mark 0
AnchorPoint: "+BBEENQQ3BEsEPARPBD0EPQQ+BDUA--0" 166 0 mark 0
LayerCount: 2
Fore
SplineSet
147 -264 m 1,0,-1
 50 -167 l 1,1,-1
 147 -70 l 1,2,-1
 189 -95 l 1,3,-1
 117 -167 l 1,4,-1
 189 -239 l 1,5,-1
 147 -264 l 1,0,-1
EndSplineSet
EndChar

StartChar: uni05D9
Encoding: 1497 1497 139
Width: 324
GlyphClass: 2
Flags: W
AnchorPoint: "+BBEENQQ3BEsEPARPBD0EPQQ+BDUA--4" 165 0 basechar 0
AnchorPoint: "+BBEENQQ3BEsEPARPBD0EPQQ+BDUA--3" 161 536 basechar 0
AnchorPoint: "+BBEENQQ3BEsEPARPBD0EPQQ+BDUA--2" 75 536 basechar 0
AnchorPoint: "+BBEENQQ3BEsEPARPBD0EPQQ+BDUA--1" 102 408 basechar 0
AnchorPoint: "+BBEENQQ3BEsEPARPBD0EPQQ+BDUA--0" -11 0 basechar 0
LayerCount: 2
Fore
SplineSet
146 263 m 1,0,-1
 111 300 l 1,1,-1
 142 336 l 2,2,3
 178 378 178 378 190.5 402.5 c 128,-1,4
 203 427 203 427 203 452 c 0,5,6
 203 466 203 466 198 474.5 c 128,-1,7
 193 483 193 483 177 483 c 2,8,-1
 89 483 l 2,9,10
 65 483 65 483 52.5 499.5 c 128,-1,11
 40 516 40 516 40 555 c 0,12,13
 40 572 40 572 43 588.5 c 128,-1,14
 46 605 46 605 54 647 c 1,15,-1
 81 647 l 1,16,-1
 81 643 l 2,17,18
 81 617 81 617 95 604.5 c 128,-1,19
 109 592 109 592 134 592 c 2,20,-1
 200 592 l 2,21,22
 238 592 238 592 256 568.5 c 128,-1,23
 274 545 274 545 274 502 c 0,24,25
 274 456 274 456 255.5 413.5 c 128,-1,26
 237 371 237 371 211 340 c 2,27,-1
 146 263 l 1,0,-1
EndSplineSet
PairPos2: "'kern' Horizontal Kerning in +BBgEMgRABDgEQgAA lookup 0 subtable" uni05E1 dx=-30 dy=0 dh=-30 dv=0 dx=0 dy=0 dh=0 dv=0
PairPos2: "'kern' Horizontal Kerning in +BBgEMgRABDgEQgAA lookup 0 subtable" uni05E4 dx=-30 dy=0 dh=-30 dv=0 dx=0 dy=0 dh=0 dv=0
PairPos2: "'kern' Horizontal Kerning in +BBgEMgRABDgEQgAA lookup 0 subtable" uni05DE dx=-30 dy=0 dh=-30 dv=0 dx=0 dy=0 dh=0 dv=0
EndChar

StartChar: uni0595
Encoding: 1429 1429 144
Width: 0
GlyphClass: 4
Flags: W
AnchorPoint: "+BBEENQQ3BEsEPARPBD0EPQQ+BDUA--9" 129 536 mark 0
AnchorPoint: "+BBEENQQ3BEsEPARPBD0EPQQ+BDUA--3" 129 536 mark 0
LayerCount: 2
Fore
SplineSet
40 646 m 1,0,-1
 40 849 l 1,1,-1
 93 852 l 1,2,-1
 93 649 l 1,3,-1
 40 646 l 1,0,-1
181 767 m 0,4,5
 144 767 144 767 144 810 c 0,6,7
 144 852 144 852 181 852 c 0,8,9
 198 852 198 852 208.5 841.5 c 128,-1,10
 219 831 219 831 219 810 c 0,11,12
 219 788 219 788 208.5 777.5 c 128,-1,13
 198 767 198 767 181 767 c 0,4,5
180 646 m 256,14,15
 163 646 163 646 152 656.5 c 128,-1,16
 141 667 141 667 141 689 c 256,17,18
 141 711 141 711 152 721 c 128,-1,19
 163 731 163 731 180 731 c 256,20,21
 197 731 197 731 207.5 721 c 128,-1,22
 218 711 218 711 218 689 c 256,23,24
 218 667 218 667 207.5 656.5 c 128,-1,25
 197 646 197 646 180 646 c 256,14,15
EndSplineSet
EndChar

StartChar: uni0594
Encoding: 1428 1428 145
Width: 0
GlyphClass: 4
Flags: W
AnchorPoint: "+BBEENQQ3BEsEPARPBD0EPQQ+BDUA--9" 84 536 mark 0
AnchorPoint: "+BBEENQQ3BEsEPARPBD0EPQQ+BDUA--3" 84 536 mark 0
LayerCount: 2
Fore
SplineSet
85 767 m 0,0,1
 48 767 48 767 48 810 c 0,2,3
 48 852 48 852 85 852 c 0,4,5
 102 852 102 852 112.5 841.5 c 128,-1,6
 123 831 123 831 123 810 c 0,7,8
 123 788 123 788 112.5 777.5 c 128,-1,9
 102 767 102 767 85 767 c 0,0,1
84 646 m 256,10,11
 67 646 67 646 56.5 656.5 c 128,-1,12
 46 667 46 667 46 689 c 256,13,14
 46 711 46 711 56.5 721 c 128,-1,15
 67 731 67 731 84 731 c 256,16,17
 101 731 101 731 111.5 721 c 128,-1,18
 122 711 122 711 122 689 c 256,19,20
 122 667 122 667 111.5 656.5 c 128,-1,21
 101 646 101 646 84 646 c 256,10,11
EndSplineSet
EndChar

StartChar: uni0598
Encoding: 1432 1432 146
Width: 0
GlyphClass: 4
Flags: W
AnchorPoint: "+BBEENQQ3BEsEPARPBD0EPQQ+BDUA--9" 188 536 mark 0
AnchorPoint: "+BBEENQQ3BEsEPARPBD0EPQQ+BDUA--3" 188 536 mark 0
LayerCount: 2
Fore
SplineSet
89 642 m 1,0,1
 32 660 32 660 32 724 c 0,2,3
 32 758 32 758 53.5 779.5 c 128,-1,4
 75 801 75 801 109 801 c 0,5,6
 134 801 134 801 154.5 787 c 128,-1,7
 175 773 175 773 203 734 c 0,8,9
 224 705 224 705 238.5 692.5 c 128,-1,10
 253 680 253 680 269 680 c 0,11,12
 284 680 284 680 293.5 690.5 c 128,-1,13
 303 701 303 701 303 720 c 0,14,15
 303 752 303 752 273 764 c 1,16,-1
 287 802 l 1,17,18
 344 780 344 780 344 720 c 0,19,20
 344 685 344 685 322.5 664 c 128,-1,21
 301 643 301 643 269 643 c 0,22,23
 243 643 243 643 221 657 c 128,-1,24
 199 671 199 671 173 708 c 0,25,26
 150 741 150 741 137 752.5 c 128,-1,27
 124 764 124 764 107 764 c 0,28,29
 92 764 92 764 82.5 753.5 c 128,-1,30
 73 743 73 743 73 724 c 0,31,32
 73 693 73 693 103 679 c 1,33,-1
 89 642 l 1,0,1
EndSplineSet
EndChar

StartChar: uni05D6
Encoding: 1494 1494 147
Width: 302
GlyphClass: 2
Flags: W
AnchorPoint: "+BBEENQQ3BEsEPARPBD0EPQQ+BDUA--4" 185 0 basechar 0
AnchorPoint: "+BBEENQQ3BEsEPARPBD0EPQQ+BDUA--3" 174 536 basechar 0
AnchorPoint: "+BBEENQQ3BEsEPARPBD0EPQQ+BDUA--2" 16 536 basechar 0
AnchorPoint: "+BBEENQQ3BEsEPARPBD0EPQQ+BDUA--1" 34 300 basechar 0
AnchorPoint: "+BBEENQQ3BEsEPARPBD0EPQQ+BDUA--0" -21 0 basechar 0
LayerCount: 2
Fore
SplineSet
145 -6 m 1,0,1
 138 34 138 34 129.5 86 c 128,-1,2
 121 138 121 138 115.5 189.5 c 128,-1,3
 110 241 110 241 110 277 c 0,4,5
 110 311 110 311 115 349.5 c 128,-1,6
 120 388 120 388 128 423.5 c 128,-1,7
 136 459 136 459 143 484 c 1,8,-1
 100 490 l 2,9,10
 72 494 72 494 61 506.5 c 128,-1,11
 50 519 50 519 50 548 c 0,12,13
 50 570 50 570 56 590 c 128,-1,14
 62 610 62 610 77 647 c 1,15,-1
 104 647 l 1,16,-1
 104 639 l 2,17,18
 104 617 104 617 113.5 607 c 128,-1,19
 123 597 123 597 143 594 c 2,20,-1
 223 583 l 2,21,22
 262 577 262 577 262 530 c 0,23,24
 262 520 262 520 260.5 507 c 128,-1,25
 259 494 259 494 254 469 c 1,26,-1
 188 478 l 1,27,28
 178 425 178 425 174 386 c 128,-1,29
 170 347 170 347 170 315 c 0,30,31
 170 242 170 242 184.5 175.5 c 128,-1,32
 199 109 199 109 224 30 c 1,33,34
 203 9 203 9 160 -6 c 1,35,-1
 145 -6 l 1,0,1
EndSplineSet
PairPos2: "'kern' Horizontal Kerning in +BBgEMgRABDgEQgAA lookup 0 subtable" uni05DE dx=-20 dy=0 dh=-20 dv=0 dx=0 dy=0 dh=0 dv=0
PairPos2: "'kern' Horizontal Kerning in +BBgEMgRABDgEQgAA lookup 0 subtable" uni05D0 dx=-10 dy=0 dh=-10 dv=0 dx=0 dy=0 dh=0 dv=0
EndChar

StartChar: uni05AE
Encoding: 1454 1454 149
Width: 0
GlyphClass: 4
Flags: W
AnchorPoint: "+BBEENQQ3BEsEPARPBD0EPQQ+BDUA--9" 188 536 mark 0
AnchorPoint: "+BBEENQQ3BEsEPARPBD0EPQQ+BDUA--3" 188 536 mark 0
LayerCount: 2
Fore
SplineSet
89 660 m 1,0,1
 32 678 32 678 32 742 c 0,2,3
 32 777 32 777 53.5 798 c 128,-1,4
 75 819 75 819 109 819 c 0,5,6
 134 819 134 819 155 805.5 c 128,-1,7
 176 792 176 792 203 753 c 0,8,9
 224 723 224 723 238.5 710.5 c 128,-1,10
 253 698 253 698 269 698 c 0,11,12
 284 698 284 698 293.5 708.5 c 128,-1,13
 303 719 303 719 303 738 c 0,14,15
 303 770 303 770 273 782 c 1,16,-1
 287 820 l 1,17,18
 344 799 344 799 344 738 c 0,19,20
 344 704 344 704 322.5 682.5 c 128,-1,21
 301 661 301 661 269 661 c 0,22,23
 243 661 243 661 221 675.5 c 128,-1,24
 199 690 199 690 173 727 c 0,25,26
 150 760 150 760 137 771 c 128,-1,27
 124 782 124 782 107 782 c 0,28,29
 92 782 92 782 82.5 771.5 c 128,-1,30
 73 761 73 761 73 742 c 0,31,32
 73 711 73 711 103 697 c 1,33,-1
 89 660 l 1,0,1
EndSplineSet
EndChar

